<?xml version="1.0" encoding="utf-8" standalone="no"?>
<!DOCTYPE svg PUBLIC "-//W3C//DTD SVG 1.1//EN"
  "http://www.w3.org/Graphics/SVG/1.1/DTD/svg11.dtd">
<svg height="345.6pt" version="1.1" viewBox="0 0 460.8 345.6" width="460.8pt" xmlns="http://www.w3.org/2000/svg" xmlns:xlink="http://www.w3.org/1999/xlink">
 <metadata>
  <rdf:RDF xmlns:cc="http://creativecommons.org/ns#" xmlns:dc="http://purl.org/dc/elements/1.1/" xmlns:rdf="http://www.w3.org/1999/02/22-rdf-syntax-ns#">
   <cc:Work>
    <dc:type rdf:resource="http://purl.org/dc/dcmitype/StillImage"/>
    <dc:date>2023-11-16T09:43:45.114068</dc:date>
    <dc:format>image/svg+xml</dc:format>
    <dc:creator>
     <cc:Agent>
      <dc:title>Matplotlib v3.4.2, https://matplotlib.org/</dc:title>
     </cc:Agent>
    </dc:creator>
   </cc:Work>
  </rdf:RDF>
 </metadata>
 <defs>
  <style type="text/css">*{stroke-linecap:butt;stroke-linejoin:round;}</style>
 </defs>
 <g id="figure_1">
  <g id="patch_1">
   <path d="M 0 345.6 
L 460.8 345.6 
L 460.8 0 
L 0 0 
z
" style="fill:none;"/>
  </g>
  <g id="axes_1">
   <g id="patch_2">
    <path d="M 57.6 162.432 
L 414.72 162.432 
L 414.72 41.472 
L 57.6 41.472 
z
" style="fill:none;"/>
   </g>
   <g id="matplotlib.axis_1">
    <g id="xtick_1">
     <g id="line2d_1">
      <defs>
       <path d="M 0 0 
L 0 3.5 
" id="m5891e357a4" style="stroke:#ffffff;stroke-width:0.8;"/>
      </defs>
      <g>
       <use style="fill:#ffffff;stroke:#ffffff;stroke-width:0.8;" x="97.189169" xlink:href="#m5891e357a4" y="162.432"/>
      </g>
     </g>
    </g>
    <g id="xtick_2">
     <g id="line2d_2">
      <g>
       <use style="fill:#ffffff;stroke:#ffffff;stroke-width:0.8;" x="143.902054" xlink:href="#m5891e357a4" y="162.432"/>
      </g>
     </g>
    </g>
    <g id="xtick_3">
     <g id="line2d_3">
      <g>
       <use style="fill:#ffffff;stroke:#ffffff;stroke-width:0.8;" x="190.614938" xlink:href="#m5891e357a4" y="162.432"/>
      </g>
     </g>
    </g>
    <g id="xtick_4">
     <g id="line2d_4">
      <g>
       <use style="fill:#ffffff;stroke:#ffffff;stroke-width:0.8;" x="237.327822" xlink:href="#m5891e357a4" y="162.432"/>
      </g>
     </g>
    </g>
    <g id="xtick_5">
     <g id="line2d_5">
      <g>
       <use style="fill:#ffffff;stroke:#ffffff;stroke-width:0.8;" x="284.040706" xlink:href="#m5891e357a4" y="162.432"/>
      </g>
     </g>
    </g>
    <g id="xtick_6">
     <g id="line2d_6">
      <g>
       <use style="fill:#ffffff;stroke:#ffffff;stroke-width:0.8;" x="330.753591" xlink:href="#m5891e357a4" y="162.432"/>
      </g>
     </g>
    </g>
    <g id="xtick_7">
     <g id="line2d_7">
      <g>
       <use style="fill:#ffffff;stroke:#ffffff;stroke-width:0.8;" x="377.466475" xlink:href="#m5891e357a4" y="162.432"/>
      </g>
     </g>
    </g>
   </g>
   <g id="matplotlib.axis_2">
    <g id="ytick_1">
     <g id="line2d_8">
      <defs>
       <path d="M 0 0 
L -3.5 0 
" id="m67d38b23ec" style="stroke:#ffffff;stroke-width:0.8;"/>
      </defs>
      <g>
       <use style="fill:#ffffff;stroke:#ffffff;stroke-width:0.8;" x="57.6" xlink:href="#m67d38b23ec" y="140.408765"/>
      </g>
     </g>
     <g id="text_1">
      <!-- −110 -->
      <g style="fill:#ffffff;" transform="translate(23.132812 144.207984)scale(0.1 -0.1)">
       <defs>
        <path d="M 678 2272 
L 4684 2272 
L 4684 1741 
L 678 1741 
L 678 2272 
z
" id="DejaVuSans-2212" transform="scale(0.015625)"/>
        <path d="M 794 531 
L 1825 531 
L 1825 4091 
L 703 3866 
L 703 4441 
L 1819 4666 
L 2450 4666 
L 2450 531 
L 3481 531 
L 3481 0 
L 794 0 
L 794 531 
z
" id="DejaVuSans-31" transform="scale(0.015625)"/>
        <path d="M 2034 4250 
Q 1547 4250 1301 3770 
Q 1056 3291 1056 2328 
Q 1056 1369 1301 889 
Q 1547 409 2034 409 
Q 2525 409 2770 889 
Q 3016 1369 3016 2328 
Q 3016 3291 2770 3770 
Q 2525 4250 2034 4250 
z
M 2034 4750 
Q 2819 4750 3233 4129 
Q 3647 3509 3647 2328 
Q 3647 1150 3233 529 
Q 2819 -91 2034 -91 
Q 1250 -91 836 529 
Q 422 1150 422 2328 
Q 422 3509 836 4129 
Q 1250 4750 2034 4750 
z
" id="DejaVuSans-30" transform="scale(0.015625)"/>
       </defs>
       <use xlink:href="#DejaVuSans-2212"/>
       <use x="83.789062" xlink:href="#DejaVuSans-31"/>
       <use x="147.412109" xlink:href="#DejaVuSans-31"/>
       <use x="211.035156" xlink:href="#DejaVuSans-30"/>
      </g>
     </g>
    </g>
    <g id="ytick_2">
     <g id="line2d_9">
      <g>
       <use style="fill:#ffffff;stroke:#ffffff;stroke-width:0.8;" x="57.6" xlink:href="#m67d38b23ec" y="102.381954"/>
      </g>
     </g>
     <g id="text_2">
      <!-- −100 -->
      <g style="fill:#ffffff;" transform="translate(23.132812 106.181173)scale(0.1 -0.1)">
       <use xlink:href="#DejaVuSans-2212"/>
       <use x="83.789062" xlink:href="#DejaVuSans-31"/>
       <use x="147.412109" xlink:href="#DejaVuSans-30"/>
       <use x="211.035156" xlink:href="#DejaVuSans-30"/>
      </g>
     </g>
    </g>
    <g id="ytick_3">
     <g id="line2d_10">
      <g>
       <use style="fill:#ffffff;stroke:#ffffff;stroke-width:0.8;" x="57.6" xlink:href="#m67d38b23ec" y="64.355143"/>
      </g>
     </g>
     <g id="text_3">
      <!-- −90 -->
      <g style="fill:#ffffff;" transform="translate(29.495313 68.154361)scale(0.1 -0.1)">
       <defs>
        <path d="M 703 97 
L 703 672 
Q 941 559 1184 500 
Q 1428 441 1663 441 
Q 2288 441 2617 861 
Q 2947 1281 2994 2138 
Q 2813 1869 2534 1725 
Q 2256 1581 1919 1581 
Q 1219 1581 811 2004 
Q 403 2428 403 3163 
Q 403 3881 828 4315 
Q 1253 4750 1959 4750 
Q 2769 4750 3195 4129 
Q 3622 3509 3622 2328 
Q 3622 1225 3098 567 
Q 2575 -91 1691 -91 
Q 1453 -91 1209 -44 
Q 966 3 703 97 
z
M 1959 2075 
Q 2384 2075 2632 2365 
Q 2881 2656 2881 3163 
Q 2881 3666 2632 3958 
Q 2384 4250 1959 4250 
Q 1534 4250 1286 3958 
Q 1038 3666 1038 3163 
Q 1038 2656 1286 2365 
Q 1534 2075 1959 2075 
z
" id="DejaVuSans-39" transform="scale(0.015625)"/>
       </defs>
       <use xlink:href="#DejaVuSans-2212"/>
       <use x="83.789062" xlink:href="#DejaVuSans-39"/>
       <use x="147.412109" xlink:href="#DejaVuSans-30"/>
      </g>
     </g>
    </g>
   </g>
   <g id="line2d_11">
    <path clip-path="url(#pb9b37ad5e9)" d="M 73.832727 127.225531 
L 76.168371 129.056093 
L 78.504016 125.939347 
L 80.83966 124.275989 
L 83.175304 122.236524 
L 85.510948 123.490363 
L 87.846593 120.932094 
L 90.182237 119.21024 
L 92.517881 121.696228 
L 94.853525 116.745266 
L 97.189169 116.057966 
L 99.524814 119.086402 
L 101.860458 115.150825 
L 104.196102 115.929082 
L 106.531746 118.295083 
L 108.86739 116.141693 
L 111.203035 115.848084 
L 113.538679 110.879117 
L 115.874323 112.093256 
L 118.209967 113.071059 
L 120.545612 108.92012 
L 122.881256 113.669232 
L 125.2169 112.580764 
L 127.552544 112.892112 
L 129.888188 112.051647 
L 132.223833 109.61125 
L 134.559477 111.256279 
L 136.895121 112.412084 
L 139.230765 108.849896 
L 141.566409 109.161233 
L 143.902054 107.668449 
L 146.237698 105.467556 
L 148.573342 104.334885 
L 150.908986 108.302314 
L 153.24463 105.910815 
L 155.580275 106.990081 
L 157.915919 104.621311 
L 160.251563 106.755547 
L 162.587207 107.290672 
L 164.922852 102.751133 
L 167.258496 107.821636 
L 169.59414 104.591308 
L 171.929784 101.827078 
L 174.265428 105.729755 
L 176.601073 100.766841 
L 178.936717 100.983149 
L 181.272361 104.032759 
L 183.608005 99.355347 
L 185.943649 100.488557 
L 188.279294 99.988444 
L 190.614938 99.368344 
L 192.950582 102.648758 
L 195.286226 103.457805 
L 197.621871 102.836964 
L 199.957515 98.247945 
L 202.293159 102.36464 
L 204.628803 102.867359 
L 206.964447 98.725345 
L 209.300092 100.555636 
L 211.635736 100.7994 
L 213.97138 100.13341 
L 216.307024 98.614607 
L 218.642668 99.329006 
L 220.978313 99.617815 
L 223.313957 96.018285 
L 225.649601 95.773658 
L 227.985245 98.026633 
L 230.320889 98.849069 
L 232.656534 98.511513 
L 234.992178 98.734456 
L 237.327822 94.656792 
L 239.663466 97.316954 
L 241.999111 96.850593 
L 244.334755 97.285992 
L 246.670399 95.597461 
L 249.006043 97.253776 
L 251.341687 94.311615 
L 253.677332 99.573971 
L 256.012976 94.826662 
L 258.34862 95.987179 
L 260.684264 94.977636 
L 263.019908 95.759676 
L 267.691197 93.601008 
L 270.026841 96.716963 
L 272.362485 93.272962 
L 274.698129 91.585743 
L 277.033774 94.97594 
L 279.369418 95.205218 
L 281.705062 93.874371 
L 284.040706 94.291541 
L 286.376351 92.541775 
L 288.711995 93.27686 
L 293.383283 92.605679 
L 295.718927 91.695716 
L 298.054572 88.495521 
L 300.390216 89.614931 
L 302.72586 90.123019 
L 305.061504 94.031491 
L 307.397148 90.188596 
L 309.732793 89.010693 
L 312.068437 90.017049 
L 314.404081 89.646318 
L 316.739725 93.261406 
L 319.07537 88.476104 
L 321.411014 89.720862 
L 323.746658 88.545644 
L 326.082302 89.619867 
L 328.417946 90.328052 
L 333.089235 91.472431 
L 335.424879 89.231355 
L 337.760523 90.689732 
L 340.096167 87.949661 
L 342.431812 88.436735 
L 344.767456 89.391584 
L 347.1031 86.470353 
L 349.438744 86.351181 
L 351.774388 92.307389 
L 354.110033 88.388509 
L 356.445677 86.843206 
L 358.781321 88.810086 
L 361.116965 86.760274 
L 363.45261 90.678199 
L 365.788254 87.735768 
L 368.123898 87.602252 
L 370.459542 89.383184 
L 372.795186 88.929433 
L 375.130831 85.483721 
L 377.466475 86.512502 
L 379.802119 88.80466 
L 382.137763 88.05587 
L 384.473407 87.085833 
L 386.809052 86.966953 
L 389.144696 88.978575 
L 391.48034 87.979927 
L 393.815984 88.681795 
L 396.151629 85.005994 
L 398.487273 85.747547 
L 398.487273 85.747547 
" style="fill:none;stroke:#8dd3c7;stroke-linecap:square;stroke-width:1.5;"/>
   </g>
   <g id="line2d_12">
    <path clip-path="url(#pb9b37ad5e9)" d="M 73.832727 116.147044 
L 76.168371 145.008131 
L 78.504016 129.287376 
L 80.83966 120.916169 
L 83.175304 89.136858 
L 85.510948 98.607934 
L 87.846593 126.992039 
L 90.182237 116.547508 
L 92.517881 106.912868 
L 94.853525 95.902079 
L 97.189169 97.336519 
L 99.524814 108.699386 
L 101.860458 112.690395 
L 104.196102 101.170557 
L 106.531746 86.159287 
L 108.86739 92.829851 
L 111.203035 103.017488 
L 113.538679 137.817173 
L 115.874323 120.965645 
L 118.209967 62.163448 
L 120.545612 75.879301 
L 122.881256 117.131695 
L 125.2169 128.138886 
L 127.552544 92.968782 
L 129.888188 87.228783 
L 132.223833 117.079313 
L 134.559477 88.494745 
L 136.895121 113.65034 
L 139.230765 108.058733 
L 141.566409 111.39473 
L 143.902054 117.710254 
L 146.237698 121.35215 
L 148.573342 156.933818 
L 150.908986 105.963543 
L 153.24463 102.001134 
L 155.580275 107.413087 
L 157.915919 110.054958 
L 160.251563 110.302349 
L 162.587207 116.633304 
L 164.922852 100.357003 
L 167.258496 101.175839 
L 169.59414 119.088414 
L 171.929784 93.167278 
L 174.265428 105.275673 
L 176.601073 90.654915 
L 181.272361 112.277987 
L 183.608005 108.419216 
L 185.943649 106.987206 
L 188.279294 132.106874 
L 190.614938 98.242435 
L 192.950582 101.411795 
L 195.286226 83.458672 
L 197.621871 120.008362 
L 199.957515 97.546248 
L 202.293159 87.254805 
L 204.628803 106.362798 
L 206.964447 98.007201 
L 209.300092 77.298108 
L 211.635736 86.05688 
L 213.97138 76.854183 
L 216.307024 83.175885 
L 218.642668 92.126305 
L 220.978313 93.050034 
L 223.313957 109.814237 
L 227.985245 79.994623 
L 230.320889 84.134731 
L 232.656534 105.201939 
L 234.992178 95.799848 
L 237.327822 96.849159 
L 239.663466 60.700853 
L 241.999111 89.889219 
L 244.334755 82.460168 
L 246.670399 53.631932 
L 249.006043 90.772619 
L 251.341687 99.445942 
L 253.677332 106.056705 
L 256.012976 114.136467 
L 258.34862 98.069907 
L 260.684264 46.970182 
L 263.019908 87.955183 
L 265.355553 114.724533 
L 267.691197 76.823491 
L 270.026841 78.520092 
L 272.362485 68.961053 
L 274.698129 74.510628 
L 277.033774 95.672233 
L 279.369418 68.000815 
L 281.705062 73.301897 
L 284.040706 75.172192 
L 286.376351 82.374033 
L 288.711995 78.959822 
L 291.047639 93.546592 
L 293.383283 71.955721 
L 295.718927 75.562906 
L 298.054572 98.185441 
L 300.390216 68.998057 
L 302.72586 70.683511 
L 305.061504 64.300502 
L 307.397148 68.455292 
L 309.732793 74.399925 
L 312.068437 95.719204 
L 314.404081 88.9451 
L 316.739725 78.164275 
L 319.07537 81.803388 
L 321.411014 70.746126 
L 323.746658 98.19219 
L 326.082302 96.43658 
L 328.417946 82.460921 
L 330.753591 88.795073 
L 333.089235 97.253753 
L 335.424879 81.47792 
L 337.760523 80.268333 
L 340.096167 89.26294 
L 342.431812 88.827305 
L 344.767456 68.293925 
L 347.1031 66.791132 
L 349.438744 78.082574 
L 351.774388 76.58655 
L 354.110033 73.731668 
L 356.445677 94.549359 
L 358.781321 71.867164 
L 361.116965 62.659044 
L 363.45261 81.388736 
L 365.788254 69.162036 
L 368.123898 68.10548 
L 370.459542 75.232602 
L 372.795186 63.411089 
L 375.130831 73.236122 
L 377.466475 78.786458 
L 379.802119 56.431869 
L 382.137763 81.322569 
L 384.473407 89.915058 
L 386.809052 72.770271 
L 389.144696 89.162028 
L 391.48034 71.503373 
L 393.815984 91.043899 
L 396.151629 83.298164 
L 398.487273 71.755099 
L 398.487273 71.755099 
" style="fill:none;stroke:#feffb3;stroke-linecap:square;stroke-width:1.5;"/>
   </g>
   <g id="patch_3">
    <path d="M 57.6 162.432 
L 57.6 41.472 
" style="fill:none;stroke:#ffffff;stroke-linecap:square;stroke-linejoin:miter;stroke-width:0.8;"/>
   </g>
   <g id="patch_4">
    <path d="M 414.72 162.432 
L 414.72 41.472 
" style="fill:none;stroke:#ffffff;stroke-linecap:square;stroke-linejoin:miter;stroke-width:0.8;"/>
   </g>
   <g id="patch_5">
    <path d="M 57.6 162.432 
L 414.72 162.432 
" style="fill:none;stroke:#ffffff;stroke-linecap:square;stroke-linejoin:miter;stroke-width:0.8;"/>
   </g>
   <g id="patch_6">
    <path d="M 57.6 41.472 
L 414.72 41.472 
" style="fill:none;stroke:#ffffff;stroke-linecap:square;stroke-linejoin:miter;stroke-width:0.8;"/>
   </g>
   <g id="text_4">
    <!-- Loss -->
    <g style="fill:#ffffff;" transform="translate(222.999375 35.472)scale(0.12 -0.12)">
     <defs>
      <path d="M 628 4666 
L 1259 4666 
L 1259 531 
L 3531 531 
L 3531 0 
L 628 0 
L 628 4666 
z
" id="DejaVuSans-4c" transform="scale(0.015625)"/>
      <path d="M 1959 3097 
Q 1497 3097 1228 2736 
Q 959 2375 959 1747 
Q 959 1119 1226 758 
Q 1494 397 1959 397 
Q 2419 397 2687 759 
Q 2956 1122 2956 1747 
Q 2956 2369 2687 2733 
Q 2419 3097 1959 3097 
z
M 1959 3584 
Q 2709 3584 3137 3096 
Q 3566 2609 3566 1747 
Q 3566 888 3137 398 
Q 2709 -91 1959 -91 
Q 1206 -91 779 398 
Q 353 888 353 1747 
Q 353 2609 779 3096 
Q 1206 3584 1959 3584 
z
" id="DejaVuSans-6f" transform="scale(0.015625)"/>
      <path d="M 2834 3397 
L 2834 2853 
Q 2591 2978 2328 3040 
Q 2066 3103 1784 3103 
Q 1356 3103 1142 2972 
Q 928 2841 928 2578 
Q 928 2378 1081 2264 
Q 1234 2150 1697 2047 
L 1894 2003 
Q 2506 1872 2764 1633 
Q 3022 1394 3022 966 
Q 3022 478 2636 193 
Q 2250 -91 1575 -91 
Q 1294 -91 989 -36 
Q 684 19 347 128 
L 347 722 
Q 666 556 975 473 
Q 1284 391 1588 391 
Q 1994 391 2212 530 
Q 2431 669 2431 922 
Q 2431 1156 2273 1281 
Q 2116 1406 1581 1522 
L 1381 1569 
Q 847 1681 609 1914 
Q 372 2147 372 2553 
Q 372 3047 722 3315 
Q 1072 3584 1716 3584 
Q 2034 3584 2315 3537 
Q 2597 3491 2834 3397 
z
" id="DejaVuSans-73" transform="scale(0.015625)"/>
     </defs>
     <use xlink:href="#DejaVuSans-4c"/>
     <use x="53.962891" xlink:href="#DejaVuSans-6f"/>
     <use x="115.144531" xlink:href="#DejaVuSans-73"/>
     <use x="167.244141" xlink:href="#DejaVuSans-73"/>
    </g>
   </g>
   <g id="legend_1">
    <g id="patch_7">
     <path d="M 326.485625 157.432 
L 407.72 157.432 
Q 409.72 157.432 409.72 155.432 
L 409.72 127.07575 
Q 409.72 125.07575 407.72 125.07575 
L 326.485625 125.07575 
Q 324.485625 125.07575 324.485625 127.07575 
L 324.485625 155.432 
Q 324.485625 157.432 326.485625 157.432 
z
" style="opacity:0.8;stroke:#cccccc;stroke-linejoin:miter;"/>
    </g>
    <g id="line2d_13">
     <path d="M 328.485625 133.174187 
L 348.485625 133.174187 
" style="fill:none;stroke:#8dd3c7;stroke-linecap:square;stroke-width:1.5;"/>
    </g>
    <g id="line2d_14"/>
    <g id="text_5">
     <!-- train -->
     <g style="fill:#ffffff;" transform="translate(356.485625 136.674187)scale(0.1 -0.1)">
      <defs>
       <path d="M 1172 4494 
L 1172 3500 
L 2356 3500 
L 2356 3053 
L 1172 3053 
L 1172 1153 
Q 1172 725 1289 603 
Q 1406 481 1766 481 
L 2356 481 
L 2356 0 
L 1766 0 
Q 1100 0 847 248 
Q 594 497 594 1153 
L 594 3053 
L 172 3053 
L 172 3500 
L 594 3500 
L 594 4494 
L 1172 4494 
z
" id="DejaVuSans-74" transform="scale(0.015625)"/>
       <path d="M 2631 2963 
Q 2534 3019 2420 3045 
Q 2306 3072 2169 3072 
Q 1681 3072 1420 2755 
Q 1159 2438 1159 1844 
L 1159 0 
L 581 0 
L 581 3500 
L 1159 3500 
L 1159 2956 
Q 1341 3275 1631 3429 
Q 1922 3584 2338 3584 
Q 2397 3584 2469 3576 
Q 2541 3569 2628 3553 
L 2631 2963 
z
" id="DejaVuSans-72" transform="scale(0.015625)"/>
       <path d="M 2194 1759 
Q 1497 1759 1228 1600 
Q 959 1441 959 1056 
Q 959 750 1161 570 
Q 1363 391 1709 391 
Q 2188 391 2477 730 
Q 2766 1069 2766 1631 
L 2766 1759 
L 2194 1759 
z
M 3341 1997 
L 3341 0 
L 2766 0 
L 2766 531 
Q 2569 213 2275 61 
Q 1981 -91 1556 -91 
Q 1019 -91 701 211 
Q 384 513 384 1019 
Q 384 1609 779 1909 
Q 1175 2209 1959 2209 
L 2766 2209 
L 2766 2266 
Q 2766 2663 2505 2880 
Q 2244 3097 1772 3097 
Q 1472 3097 1187 3025 
Q 903 2953 641 2809 
L 641 3341 
Q 956 3463 1253 3523 
Q 1550 3584 1831 3584 
Q 2591 3584 2966 3190 
Q 3341 2797 3341 1997 
z
" id="DejaVuSans-61" transform="scale(0.015625)"/>
       <path d="M 603 3500 
L 1178 3500 
L 1178 0 
L 603 0 
L 603 3500 
z
M 603 4863 
L 1178 4863 
L 1178 4134 
L 603 4134 
L 603 4863 
z
" id="DejaVuSans-69" transform="scale(0.015625)"/>
       <path d="M 3513 2113 
L 3513 0 
L 2938 0 
L 2938 2094 
Q 2938 2591 2744 2837 
Q 2550 3084 2163 3084 
Q 1697 3084 1428 2787 
Q 1159 2491 1159 1978 
L 1159 0 
L 581 0 
L 581 3500 
L 1159 3500 
L 1159 2956 
Q 1366 3272 1645 3428 
Q 1925 3584 2291 3584 
Q 2894 3584 3203 3211 
Q 3513 2838 3513 2113 
z
" id="DejaVuSans-6e" transform="scale(0.015625)"/>
      </defs>
      <use xlink:href="#DejaVuSans-74"/>
      <use x="39.208984" xlink:href="#DejaVuSans-72"/>
      <use x="80.322266" xlink:href="#DejaVuSans-61"/>
      <use x="141.601562" xlink:href="#DejaVuSans-69"/>
      <use x="169.384766" xlink:href="#DejaVuSans-6e"/>
     </g>
    </g>
    <g id="line2d_15">
     <path d="M 328.485625 147.852312 
L 348.485625 147.852312 
" style="fill:none;stroke:#feffb3;stroke-linecap:square;stroke-width:1.5;"/>
    </g>
    <g id="line2d_16"/>
    <g id="text_6">
     <!-- validation -->
     <g style="fill:#ffffff;" transform="translate(356.485625 151.352312)scale(0.1 -0.1)">
      <defs>
       <path d="M 191 3500 
L 800 3500 
L 1894 563 
L 2988 3500 
L 3597 3500 
L 2284 0 
L 1503 0 
L 191 3500 
z
" id="DejaVuSans-76" transform="scale(0.015625)"/>
       <path d="M 603 4863 
L 1178 4863 
L 1178 0 
L 603 0 
L 603 4863 
z
" id="DejaVuSans-6c" transform="scale(0.015625)"/>
       <path d="M 2906 2969 
L 2906 4863 
L 3481 4863 
L 3481 0 
L 2906 0 
L 2906 525 
Q 2725 213 2448 61 
Q 2172 -91 1784 -91 
Q 1150 -91 751 415 
Q 353 922 353 1747 
Q 353 2572 751 3078 
Q 1150 3584 1784 3584 
Q 2172 3584 2448 3432 
Q 2725 3281 2906 2969 
z
M 947 1747 
Q 947 1113 1208 752 
Q 1469 391 1925 391 
Q 2381 391 2643 752 
Q 2906 1113 2906 1747 
Q 2906 2381 2643 2742 
Q 2381 3103 1925 3103 
Q 1469 3103 1208 2742 
Q 947 2381 947 1747 
z
" id="DejaVuSans-64" transform="scale(0.015625)"/>
      </defs>
      <use xlink:href="#DejaVuSans-76"/>
      <use x="59.179688" xlink:href="#DejaVuSans-61"/>
      <use x="120.458984" xlink:href="#DejaVuSans-6c"/>
      <use x="148.242188" xlink:href="#DejaVuSans-69"/>
      <use x="176.025391" xlink:href="#DejaVuSans-64"/>
      <use x="239.501953" xlink:href="#DejaVuSans-61"/>
      <use x="300.78125" xlink:href="#DejaVuSans-74"/>
      <use x="339.990234" xlink:href="#DejaVuSans-69"/>
      <use x="367.773438" xlink:href="#DejaVuSans-6f"/>
      <use x="428.955078" xlink:href="#DejaVuSans-6e"/>
     </g>
    </g>
   </g>
  </g>
  <g id="axes_2">
   <g id="patch_8">
    <path d="M 57.6 307.584 
L 414.72 307.584 
L 414.72 186.624 
L 57.6 186.624 
z
" style="fill:none;"/>
   </g>
   <g id="matplotlib.axis_3">
    <g id="xtick_8">
     <g id="line2d_17">
      <g>
       <use style="fill:#ffffff;stroke:#ffffff;stroke-width:0.8;" x="97.189169" xlink:href="#m5891e357a4" y="307.584"/>
      </g>
     </g>
     <g id="text_7">
      <!-- 200 -->
      <g style="fill:#ffffff;" transform="translate(87.645419 322.182437)scale(0.1 -0.1)">
       <defs>
        <path d="M 1228 531 
L 3431 531 
L 3431 0 
L 469 0 
L 469 531 
Q 828 903 1448 1529 
Q 2069 2156 2228 2338 
Q 2531 2678 2651 2914 
Q 2772 3150 2772 3378 
Q 2772 3750 2511 3984 
Q 2250 4219 1831 4219 
Q 1534 4219 1204 4116 
Q 875 4013 500 3803 
L 500 4441 
Q 881 4594 1212 4672 
Q 1544 4750 1819 4750 
Q 2544 4750 2975 4387 
Q 3406 4025 3406 3419 
Q 3406 3131 3298 2873 
Q 3191 2616 2906 2266 
Q 2828 2175 2409 1742 
Q 1991 1309 1228 531 
z
" id="DejaVuSans-32" transform="scale(0.015625)"/>
       </defs>
       <use xlink:href="#DejaVuSans-32"/>
       <use x="63.623047" xlink:href="#DejaVuSans-30"/>
       <use x="127.246094" xlink:href="#DejaVuSans-30"/>
      </g>
     </g>
    </g>
    <g id="xtick_9">
     <g id="line2d_18">
      <g>
       <use style="fill:#ffffff;stroke:#ffffff;stroke-width:0.8;" x="143.902054" xlink:href="#m5891e357a4" y="307.584"/>
      </g>
     </g>
     <g id="text_8">
      <!-- 400 -->
      <g style="fill:#ffffff;" transform="translate(134.358304 322.182437)scale(0.1 -0.1)">
       <defs>
        <path d="M 2419 4116 
L 825 1625 
L 2419 1625 
L 2419 4116 
z
M 2253 4666 
L 3047 4666 
L 3047 1625 
L 3713 1625 
L 3713 1100 
L 3047 1100 
L 3047 0 
L 2419 0 
L 2419 1100 
L 313 1100 
L 313 1709 
L 2253 4666 
z
" id="DejaVuSans-34" transform="scale(0.015625)"/>
       </defs>
       <use xlink:href="#DejaVuSans-34"/>
       <use x="63.623047" xlink:href="#DejaVuSans-30"/>
       <use x="127.246094" xlink:href="#DejaVuSans-30"/>
      </g>
     </g>
    </g>
    <g id="xtick_10">
     <g id="line2d_19">
      <g>
       <use style="fill:#ffffff;stroke:#ffffff;stroke-width:0.8;" x="190.614938" xlink:href="#m5891e357a4" y="307.584"/>
      </g>
     </g>
     <g id="text_9">
      <!-- 600 -->
      <g style="fill:#ffffff;" transform="translate(181.071188 322.182437)scale(0.1 -0.1)">
       <defs>
        <path d="M 2113 2584 
Q 1688 2584 1439 2293 
Q 1191 2003 1191 1497 
Q 1191 994 1439 701 
Q 1688 409 2113 409 
Q 2538 409 2786 701 
Q 3034 994 3034 1497 
Q 3034 2003 2786 2293 
Q 2538 2584 2113 2584 
z
M 3366 4563 
L 3366 3988 
Q 3128 4100 2886 4159 
Q 2644 4219 2406 4219 
Q 1781 4219 1451 3797 
Q 1122 3375 1075 2522 
Q 1259 2794 1537 2939 
Q 1816 3084 2150 3084 
Q 2853 3084 3261 2657 
Q 3669 2231 3669 1497 
Q 3669 778 3244 343 
Q 2819 -91 2113 -91 
Q 1303 -91 875 529 
Q 447 1150 447 2328 
Q 447 3434 972 4092 
Q 1497 4750 2381 4750 
Q 2619 4750 2861 4703 
Q 3103 4656 3366 4563 
z
" id="DejaVuSans-36" transform="scale(0.015625)"/>
       </defs>
       <use xlink:href="#DejaVuSans-36"/>
       <use x="63.623047" xlink:href="#DejaVuSans-30"/>
       <use x="127.246094" xlink:href="#DejaVuSans-30"/>
      </g>
     </g>
    </g>
    <g id="xtick_11">
     <g id="line2d_20">
      <g>
       <use style="fill:#ffffff;stroke:#ffffff;stroke-width:0.8;" x="237.327822" xlink:href="#m5891e357a4" y="307.584"/>
      </g>
     </g>
     <g id="text_10">
      <!-- 800 -->
      <g style="fill:#ffffff;" transform="translate(227.784072 322.182437)scale(0.1 -0.1)">
       <defs>
        <path d="M 2034 2216 
Q 1584 2216 1326 1975 
Q 1069 1734 1069 1313 
Q 1069 891 1326 650 
Q 1584 409 2034 409 
Q 2484 409 2743 651 
Q 3003 894 3003 1313 
Q 3003 1734 2745 1975 
Q 2488 2216 2034 2216 
z
M 1403 2484 
Q 997 2584 770 2862 
Q 544 3141 544 3541 
Q 544 4100 942 4425 
Q 1341 4750 2034 4750 
Q 2731 4750 3128 4425 
Q 3525 4100 3525 3541 
Q 3525 3141 3298 2862 
Q 3072 2584 2669 2484 
Q 3125 2378 3379 2068 
Q 3634 1759 3634 1313 
Q 3634 634 3220 271 
Q 2806 -91 2034 -91 
Q 1263 -91 848 271 
Q 434 634 434 1313 
Q 434 1759 690 2068 
Q 947 2378 1403 2484 
z
M 1172 3481 
Q 1172 3119 1398 2916 
Q 1625 2713 2034 2713 
Q 2441 2713 2670 2916 
Q 2900 3119 2900 3481 
Q 2900 3844 2670 4047 
Q 2441 4250 2034 4250 
Q 1625 4250 1398 4047 
Q 1172 3844 1172 3481 
z
" id="DejaVuSans-38" transform="scale(0.015625)"/>
       </defs>
       <use xlink:href="#DejaVuSans-38"/>
       <use x="63.623047" xlink:href="#DejaVuSans-30"/>
       <use x="127.246094" xlink:href="#DejaVuSans-30"/>
      </g>
     </g>
    </g>
    <g id="xtick_12">
     <g id="line2d_21">
      <g>
       <use style="fill:#ffffff;stroke:#ffffff;stroke-width:0.8;" x="284.040706" xlink:href="#m5891e357a4" y="307.584"/>
      </g>
     </g>
     <g id="text_11">
      <!-- 1000 -->
      <g style="fill:#ffffff;" transform="translate(271.315706 322.182437)scale(0.1 -0.1)">
       <use xlink:href="#DejaVuSans-31"/>
       <use x="63.623047" xlink:href="#DejaVuSans-30"/>
       <use x="127.246094" xlink:href="#DejaVuSans-30"/>
       <use x="190.869141" xlink:href="#DejaVuSans-30"/>
      </g>
     </g>
    </g>
    <g id="xtick_13">
     <g id="line2d_22">
      <g>
       <use style="fill:#ffffff;stroke:#ffffff;stroke-width:0.8;" x="330.753591" xlink:href="#m5891e357a4" y="307.584"/>
      </g>
     </g>
     <g id="text_12">
      <!-- 1200 -->
      <g style="fill:#ffffff;" transform="translate(318.028591 322.182437)scale(0.1 -0.1)">
       <use xlink:href="#DejaVuSans-31"/>
       <use x="63.623047" xlink:href="#DejaVuSans-32"/>
       <use x="127.246094" xlink:href="#DejaVuSans-30"/>
       <use x="190.869141" xlink:href="#DejaVuSans-30"/>
      </g>
     </g>
    </g>
    <g id="xtick_14">
     <g id="line2d_23">
      <g>
       <use style="fill:#ffffff;stroke:#ffffff;stroke-width:0.8;" x="377.466475" xlink:href="#m5891e357a4" y="307.584"/>
      </g>
     </g>
     <g id="text_13">
      <!-- 1400 -->
      <g style="fill:#ffffff;" transform="translate(364.741475 322.182437)scale(0.1 -0.1)">
       <use xlink:href="#DejaVuSans-31"/>
       <use x="63.623047" xlink:href="#DejaVuSans-34"/>
       <use x="127.246094" xlink:href="#DejaVuSans-30"/>
       <use x="190.869141" xlink:href="#DejaVuSans-30"/>
      </g>
     </g>
    </g>
   </g>
   <g id="matplotlib.axis_4">
    <g id="ytick_4">
     <g id="line2d_24">
      <g>
       <use style="fill:#ffffff;stroke:#ffffff;stroke-width:0.8;" x="57.6" xlink:href="#m67d38b23ec" y="302.48658"/>
      </g>
     </g>
     <g id="text_14">
      <!-- 0.03 -->
      <g style="fill:#ffffff;" transform="translate(28.334375 306.285799)scale(0.1 -0.1)">
       <defs>
        <path d="M 684 794 
L 1344 794 
L 1344 0 
L 684 0 
L 684 794 
z
" id="DejaVuSans-2e" transform="scale(0.015625)"/>
        <path d="M 2597 2516 
Q 3050 2419 3304 2112 
Q 3559 1806 3559 1356 
Q 3559 666 3084 287 
Q 2609 -91 1734 -91 
Q 1441 -91 1130 -33 
Q 819 25 488 141 
L 488 750 
Q 750 597 1062 519 
Q 1375 441 1716 441 
Q 2309 441 2620 675 
Q 2931 909 2931 1356 
Q 2931 1769 2642 2001 
Q 2353 2234 1838 2234 
L 1294 2234 
L 1294 2753 
L 1863 2753 
Q 2328 2753 2575 2939 
Q 2822 3125 2822 3475 
Q 2822 3834 2567 4026 
Q 2313 4219 1838 4219 
Q 1578 4219 1281 4162 
Q 984 4106 628 3988 
L 628 4550 
Q 988 4650 1302 4700 
Q 1616 4750 1894 4750 
Q 2613 4750 3031 4423 
Q 3450 4097 3450 3541 
Q 3450 3153 3228 2886 
Q 3006 2619 2597 2516 
z
" id="DejaVuSans-33" transform="scale(0.015625)"/>
       </defs>
       <use xlink:href="#DejaVuSans-30"/>
       <use x="63.623047" xlink:href="#DejaVuSans-2e"/>
       <use x="95.410156" xlink:href="#DejaVuSans-30"/>
       <use x="159.033203" xlink:href="#DejaVuSans-33"/>
      </g>
     </g>
    </g>
    <g id="ytick_5">
     <g id="line2d_25">
      <g>
       <use style="fill:#ffffff;stroke:#ffffff;stroke-width:0.8;" x="57.6" xlink:href="#m67d38b23ec" y="275.769141"/>
      </g>
     </g>
     <g id="text_15">
      <!-- 0.04 -->
      <g style="fill:#ffffff;" transform="translate(28.334375 279.568359)scale(0.1 -0.1)">
       <use xlink:href="#DejaVuSans-30"/>
       <use x="63.623047" xlink:href="#DejaVuSans-2e"/>
       <use x="95.410156" xlink:href="#DejaVuSans-30"/>
       <use x="159.033203" xlink:href="#DejaVuSans-34"/>
      </g>
     </g>
    </g>
    <g id="ytick_6">
     <g id="line2d_26">
      <g>
       <use style="fill:#ffffff;stroke:#ffffff;stroke-width:0.8;" x="57.6" xlink:href="#m67d38b23ec" y="249.051701"/>
      </g>
     </g>
     <g id="text_16">
      <!-- 0.05 -->
      <g style="fill:#ffffff;" transform="translate(28.334375 252.85092)scale(0.1 -0.1)">
       <defs>
        <path d="M 691 4666 
L 3169 4666 
L 3169 4134 
L 1269 4134 
L 1269 2991 
Q 1406 3038 1543 3061 
Q 1681 3084 1819 3084 
Q 2600 3084 3056 2656 
Q 3513 2228 3513 1497 
Q 3513 744 3044 326 
Q 2575 -91 1722 -91 
Q 1428 -91 1123 -41 
Q 819 9 494 109 
L 494 744 
Q 775 591 1075 516 
Q 1375 441 1709 441 
Q 2250 441 2565 725 
Q 2881 1009 2881 1497 
Q 2881 1984 2565 2268 
Q 2250 2553 1709 2553 
Q 1456 2553 1204 2497 
Q 953 2441 691 2322 
L 691 4666 
z
" id="DejaVuSans-35" transform="scale(0.015625)"/>
       </defs>
       <use xlink:href="#DejaVuSans-30"/>
       <use x="63.623047" xlink:href="#DejaVuSans-2e"/>
       <use x="95.410156" xlink:href="#DejaVuSans-30"/>
       <use x="159.033203" xlink:href="#DejaVuSans-35"/>
      </g>
     </g>
    </g>
    <g id="ytick_7">
     <g id="line2d_27">
      <g>
       <use style="fill:#ffffff;stroke:#ffffff;stroke-width:0.8;" x="57.6" xlink:href="#m67d38b23ec" y="222.334262"/>
      </g>
     </g>
     <g id="text_17">
      <!-- 0.06 -->
      <g style="fill:#ffffff;" transform="translate(28.334375 226.133481)scale(0.1 -0.1)">
       <use xlink:href="#DejaVuSans-30"/>
       <use x="63.623047" xlink:href="#DejaVuSans-2e"/>
       <use x="95.410156" xlink:href="#DejaVuSans-30"/>
       <use x="159.033203" xlink:href="#DejaVuSans-36"/>
      </g>
     </g>
    </g>
    <g id="ytick_8">
     <g id="line2d_28">
      <g>
       <use style="fill:#ffffff;stroke:#ffffff;stroke-width:0.8;" x="57.6" xlink:href="#m67d38b23ec" y="195.616823"/>
      </g>
     </g>
     <g id="text_18">
      <!-- 0.07 -->
      <g style="fill:#ffffff;" transform="translate(28.334375 199.416042)scale(0.1 -0.1)">
       <defs>
        <path d="M 525 4666 
L 3525 4666 
L 3525 4397 
L 1831 0 
L 1172 0 
L 2766 4134 
L 525 4134 
L 525 4666 
z
" id="DejaVuSans-37" transform="scale(0.015625)"/>
       </defs>
       <use xlink:href="#DejaVuSans-30"/>
       <use x="63.623047" xlink:href="#DejaVuSans-2e"/>
       <use x="95.410156" xlink:href="#DejaVuSans-30"/>
       <use x="159.033203" xlink:href="#DejaVuSans-37"/>
      </g>
     </g>
    </g>
   </g>
   <g id="line2d_29">
    <path clip-path="url(#pc598513f74)" d="M 73.832727 208.304935 
L 76.168371 224.180437 
L 78.504016 225.820888 
L 80.83966 229.681558 
L 83.175304 232.556354 
L 85.510948 229.144537 
L 87.846593 238.511672 
L 90.182237 235.396418 
L 92.517881 247.531479 
L 94.853525 244.194471 
L 97.189169 246.542934 
L 101.860458 256.527241 
L 104.196102 253.745955 
L 106.531746 258.04212 
L 108.86739 251.421538 
L 111.203035 253.008554 
L 113.538679 251.891765 
L 115.874323 253.842138 
L 118.209967 259.575701 
L 120.545612 252.559701 
L 122.881256 263.262707 
L 125.2169 263.561943 
L 127.552544 264.932547 
L 129.888188 265.015371 
L 132.223833 256.179914 
L 134.559477 264.598579 
L 136.895121 261.85737 
L 139.230765 270.003517 
L 141.566409 267.657726 
L 143.902054 271.448931 
L 146.237698 270.305424 
L 148.573342 267.692459 
L 150.908986 273.89892 
L 153.24463 273.436708 
L 155.580275 275.130594 
L 157.915919 272.370682 
L 160.251563 272.384041 
L 162.587207 274.508077 
L 164.922852 273.949683 
L 167.258496 279.538971 
L 169.59414 277.07028 
L 171.929784 280.065305 
L 174.265428 280.177518 
L 176.601073 280.113396 
L 178.936717 281.150033 
L 181.272361 277.222569 
L 185.943649 282.659568 
L 188.279294 277.171806 
L 190.614938 285.077496 
L 192.950582 276.821808 
L 195.286226 282.349646 
L 197.621871 278.085543 
L 199.957515 281.566825 
L 202.293159 284.340095 
L 204.628803 284.751544 
L 206.964447 284.126356 
L 209.300092 285.852302 
L 213.97138 286.261079 
L 216.307024 287.727866 
L 218.642668 283.533228 
L 220.978313 288.278246 
L 223.313957 285.069481 
L 225.649601 285.173679 
L 227.985245 286.442758 
L 230.320889 284.462995 
L 232.656534 288.847327 
L 234.992178 285.622532 
L 237.327822 288.267559 
L 239.663466 289.424424 
L 241.999111 287.391227 
L 244.334755 288.019086 
L 246.670399 287.757256 
L 249.006043 287.754584 
L 251.341687 292.408762 
L 253.677332 284.465667 
L 256.012976 290.637395 
L 258.34862 289.242745 
L 260.684264 287.126724 
L 263.019908 292.048076 
L 265.355553 288.320993 
L 267.691197 291.516399 
L 270.026841 290.974035 
L 272.362485 292.510288 
L 274.698129 292.892347 
L 277.033774 291.104951 
L 279.369418 291.738154 
L 281.705062 292.951126 
L 284.040706 292.761432 
L 286.376351 294.051884 
L 288.711995 293.624405 
L 291.047639 291.243881 
L 293.383283 293.741962 
L 295.718927 293.290437 
L 298.054572 293.512192 
L 300.390216 294.650355 
L 302.72586 293.512192 
L 305.061504 295.887372 
L 307.397148 297.396908 
L 309.732793 298.134309 
L 312.068437 295.860655 
L 314.404081 295.342337 
L 316.739725 293.132804 
L 319.07537 296.769048 
L 321.411014 297.391564 
L 323.746658 294.316387 
L 326.082302 296.964085 
L 328.417946 294.620966 
L 330.753591 295.176688 
L 333.089235 292.333953 
L 335.424879 299.512929 
L 340.096167 295.80722 
L 342.431812 295.764472 
L 344.767456 297.835074 
L 347.1031 296.074394 
L 349.438744 299.157587 
L 351.774388 294.791957 
L 354.110033 297.046909 
L 356.445677 296.413706 
L 358.781321 297.359503 
L 361.116965 299.927049 
L 363.45261 298.663314 
L 365.788254 298.639269 
L 368.123898 299.464837 
L 370.459542 297.883165 
L 372.795186 298.823619 
L 375.130831 298.743467 
L 377.466475 299.034687 
L 379.802119 300.867503 
L 382.137763 299.969797 
L 384.473407 298.740795 
L 386.809052 302.085818 
L 389.144696 300.89422 
L 391.48034 299.20835 
L 393.815984 297.730876 
L 396.151629 301.901468 
L 398.487273 297.463701 
L 398.487273 297.463701 
" style="fill:none;stroke:#8dd3c7;stroke-linecap:square;stroke-width:1.5;"/>
   </g>
   <g id="line2d_30">
    <path clip-path="url(#pc598513f74)" d="M 73.832727 192.122182 
L 76.168371 232.420095 
L 78.504016 229.211331 
L 80.83966 221.41251 
L 83.175304 199.386654 
L 85.510948 220.287706 
L 87.846593 219.900303 
L 90.182237 239.852887 
L 92.517881 249.06506 
L 94.853525 218.732751 
L 97.189169 202.314885 
L 99.524814 239.233042 
L 101.860458 241.629597 
L 104.196102 232.275821 
L 106.531746 243.048293 
L 108.86739 244.304012 
L 111.203035 228.687669 
L 113.538679 249.666202 
L 115.874323 247.683768 
L 118.209967 223.125098 
L 120.545612 216.149175 
L 122.881256 261.713096 
L 125.2169 258.64059 
L 127.552544 251.819628 
L 129.888188 260.89287 
L 132.223833 240.381892 
L 134.559477 250.809709 
L 136.895121 257.852426 
L 139.230765 261.405845 
L 141.566409 271.718777 
L 143.902054 261.571493 
L 146.237698 248.60552 
L 148.573342 260.574933 
L 150.908986 274.31304 
L 153.24463 266.4688 
L 155.580275 268.55276 
L 157.915919 260.863481 
L 160.251563 281.385146 
L 162.587207 273.126786 
L 164.922852 265.814223 
L 167.258496 277.658063 
L 169.59414 276.25807 
L 171.929784 271.245878 
L 174.265428 277.476385 
L 176.601073 267.468032 
L 178.936717 271.908471 
L 181.272361 284.551163 
L 183.608005 271.334046 
L 185.943649 260.518826 
L 188.279294 292.57441 
L 190.614938 271.040154 
L 192.950582 278.264549 
L 195.286226 270.353516 
L 197.621871 283.990097 
L 199.957515 268.622226 
L 202.293159 279.055386 
L 204.628803 275.547386 
L 206.964447 280.228281 
L 209.300092 271.756181 
L 211.635736 280.912248 
L 213.97138 269.621458 
L 216.307024 268.079862 
L 218.642668 284.428263 
L 220.978313 280.359197 
L 223.313957 282.99888 
L 225.649601 283.36758 
L 227.985245 288.280917 
L 230.320889 281.68171 
L 232.656534 285.272534 
L 234.992178 282.346974 
L 237.327822 286.440086 
L 239.663466 265.103539 
L 241.999111 281.510718 
L 244.334755 282.801171 
L 246.670399 259.874936 
L 249.006043 281.900793 
L 251.341687 284.690094 
L 253.677332 283.856509 
L 256.012976 281.740488 
L 258.34862 288.358398 
L 260.684264 263.569958 
L 263.019908 287.359166 
L 265.355553 280.677134 
L 267.691197 275.769141 
L 270.026841 287.1668 
L 272.362485 266.295137 
L 274.698129 266.086741 
L 277.033774 296.304164 
L 279.369418 277.919894 
L 281.705062 277.064936 
L 284.040706 278.093558 
L 286.376351 286.784741 
L 288.711995 283.127123 
L 291.047639 284.380171 
L 293.383283 275.918758 
L 295.718927 287.025198 
L 298.054572 280.383242 
L 300.390216 288.831297 
L 302.72586 280.957667 
L 305.061504 286.191614 
L 307.397148 276.752342 
L 309.732793 283.239337 
L 312.068437 291.527086 
L 314.404081 293.741962 
L 316.739725 281.799267 
L 319.07537 283.517198 
L 321.411014 285.913752 
L 323.746658 290.912585 
L 326.082302 293.092728 
L 328.417946 284.909177 
L 330.753591 282.806514 
L 333.089235 284.412232 
L 335.424879 295.441191 
L 337.760523 287.701149 
L 340.096167 289.654194 
L 342.431812 289.424424 
L 344.767456 287.930919 
L 347.1031 288.406489 
L 349.438744 291.583193 
L 351.774388 285.008031 
L 354.110033 281.024461 
L 356.445677 286.640467 
L 358.781321 287.359166 
L 361.116965 291.791589 
L 363.45261 301.701087 
L 365.788254 286.58436 
L 368.123898 287.009167 
L 370.459542 285.200397 
L 372.795186 285.347343 
L 375.130831 281.016446 
L 377.466475 281.967586 
L 379.802119 287.701149 
L 382.137763 293.985091 
L 384.473407 282.093158 
L 386.809052 295.288902 
L 389.144696 296.397675 
L 391.48034 286.434742 
L 393.815984 293.461429 
L 396.151629 292.563723 
L 398.487273 284.871772 
L 398.487273 284.871772 
" style="fill:none;stroke:#feffb3;stroke-linecap:square;stroke-width:1.5;"/>
   </g>
   <g id="patch_9">
    <path d="M 57.6 307.584 
L 57.6 186.624 
" style="fill:none;stroke:#ffffff;stroke-linecap:square;stroke-linejoin:miter;stroke-width:0.8;"/>
   </g>
   <g id="patch_10">
    <path d="M 414.72 307.584 
L 414.72 186.624 
" style="fill:none;stroke:#ffffff;stroke-linecap:square;stroke-linejoin:miter;stroke-width:0.8;"/>
   </g>
   <g id="patch_11">
    <path d="M 57.6 307.584 
L 414.72 307.584 
" style="fill:none;stroke:#ffffff;stroke-linecap:square;stroke-linejoin:miter;stroke-width:0.8;"/>
   </g>
   <g id="patch_12">
    <path d="M 57.6 186.624 
L 414.72 186.624 
" style="fill:none;stroke:#ffffff;stroke-linecap:square;stroke-linejoin:miter;stroke-width:0.8;"/>
   </g>
   <g id="text_19">
    <!-- RMSE -->
    <g style="fill:#ffffff;" transform="translate(219.21375 180.624)scale(0.12 -0.12)">
     <defs>
      <path d="M 2841 2188 
Q 3044 2119 3236 1894 
Q 3428 1669 3622 1275 
L 4263 0 
L 3584 0 
L 2988 1197 
Q 2756 1666 2539 1819 
Q 2322 1972 1947 1972 
L 1259 1972 
L 1259 0 
L 628 0 
L 628 4666 
L 2053 4666 
Q 2853 4666 3247 4331 
Q 3641 3997 3641 3322 
Q 3641 2881 3436 2590 
Q 3231 2300 2841 2188 
z
M 1259 4147 
L 1259 2491 
L 2053 2491 
Q 2509 2491 2742 2702 
Q 2975 2913 2975 3322 
Q 2975 3731 2742 3939 
Q 2509 4147 2053 4147 
L 1259 4147 
z
" id="DejaVuSans-52" transform="scale(0.015625)"/>
      <path d="M 628 4666 
L 1569 4666 
L 2759 1491 
L 3956 4666 
L 4897 4666 
L 4897 0 
L 4281 0 
L 4281 4097 
L 3078 897 
L 2444 897 
L 1241 4097 
L 1241 0 
L 628 0 
L 628 4666 
z
" id="DejaVuSans-4d" transform="scale(0.015625)"/>
      <path d="M 3425 4513 
L 3425 3897 
Q 3066 4069 2747 4153 
Q 2428 4238 2131 4238 
Q 1616 4238 1336 4038 
Q 1056 3838 1056 3469 
Q 1056 3159 1242 3001 
Q 1428 2844 1947 2747 
L 2328 2669 
Q 3034 2534 3370 2195 
Q 3706 1856 3706 1288 
Q 3706 609 3251 259 
Q 2797 -91 1919 -91 
Q 1588 -91 1214 -16 
Q 841 59 441 206 
L 441 856 
Q 825 641 1194 531 
Q 1563 422 1919 422 
Q 2459 422 2753 634 
Q 3047 847 3047 1241 
Q 3047 1584 2836 1778 
Q 2625 1972 2144 2069 
L 1759 2144 
Q 1053 2284 737 2584 
Q 422 2884 422 3419 
Q 422 4038 858 4394 
Q 1294 4750 2059 4750 
Q 2388 4750 2728 4690 
Q 3069 4631 3425 4513 
z
" id="DejaVuSans-53" transform="scale(0.015625)"/>
      <path d="M 628 4666 
L 3578 4666 
L 3578 4134 
L 1259 4134 
L 1259 2753 
L 3481 2753 
L 3481 2222 
L 1259 2222 
L 1259 531 
L 3634 531 
L 3634 0 
L 628 0 
L 628 4666 
z
" id="DejaVuSans-45" transform="scale(0.015625)"/>
     </defs>
     <use xlink:href="#DejaVuSans-52"/>
     <use x="69.482422" xlink:href="#DejaVuSans-4d"/>
     <use x="155.761719" xlink:href="#DejaVuSans-53"/>
     <use x="219.238281" xlink:href="#DejaVuSans-45"/>
    </g>
   </g>
  </g>
 </g>
 <defs>
  <clipPath id="pb9b37ad5e9">
   <rect height="120.96" width="357.12" x="57.6" y="41.472"/>
  </clipPath>
  <clipPath id="pc598513f74">
   <rect height="120.96" width="357.12" x="57.6" y="186.624"/>
  </clipPath>
 </defs>
</svg>
