<?xml version="1.0" encoding="utf-8" standalone="no"?>
<!DOCTYPE svg PUBLIC "-//W3C//DTD SVG 1.1//EN"
  "http://www.w3.org/Graphics/SVG/1.1/DTD/svg11.dtd">
<svg height="345.6pt" version="1.1" viewBox="0 0 460.8 345.6" width="460.8pt" xmlns="http://www.w3.org/2000/svg" xmlns:xlink="http://www.w3.org/1999/xlink">
 <metadata>
  <rdf:RDF xmlns:cc="http://creativecommons.org/ns#" xmlns:dc="http://purl.org/dc/elements/1.1/" xmlns:rdf="http://www.w3.org/1999/02/22-rdf-syntax-ns#">
   <cc:Work>
    <dc:type rdf:resource="http://purl.org/dc/dcmitype/StillImage"/>
    <dc:date>2023-11-16T04:59:06.817938</dc:date>
    <dc:format>image/svg+xml</dc:format>
    <dc:creator>
     <cc:Agent>
      <dc:title>Matplotlib v3.4.2, https://matplotlib.org/</dc:title>
     </cc:Agent>
    </dc:creator>
   </cc:Work>
  </rdf:RDF>
 </metadata>
 <defs>
  <style type="text/css">*{stroke-linecap:butt;stroke-linejoin:round;}</style>
 </defs>
 <g id="figure_1">
  <g id="patch_1">
   <path d="M 0 345.6 
L 460.8 345.6 
L 460.8 0 
L 0 0 
z
" style="fill:none;"/>
  </g>
  <g id="axes_1">
   <g id="patch_2">
    <path d="M 57.6 162.432 
L 414.72 162.432 
L 414.72 41.472 
L 57.6 41.472 
z
" style="fill:none;"/>
   </g>
   <g id="matplotlib.axis_1">
    <g id="xtick_1">
     <g id="line2d_1">
      <defs>
       <path d="M 0 0 
L 0 3.5 
" id="m468073f567" style="stroke:#ffffff;stroke-width:0.8;"/>
      </defs>
      <g>
       <use style="fill:#ffffff;stroke:#ffffff;stroke-width:0.8;" x="97.189169" xlink:href="#m468073f567" y="162.432"/>
      </g>
     </g>
    </g>
    <g id="xtick_2">
     <g id="line2d_2">
      <g>
       <use style="fill:#ffffff;stroke:#ffffff;stroke-width:0.8;" x="143.902054" xlink:href="#m468073f567" y="162.432"/>
      </g>
     </g>
    </g>
    <g id="xtick_3">
     <g id="line2d_3">
      <g>
       <use style="fill:#ffffff;stroke:#ffffff;stroke-width:0.8;" x="190.614938" xlink:href="#m468073f567" y="162.432"/>
      </g>
     </g>
    </g>
    <g id="xtick_4">
     <g id="line2d_4">
      <g>
       <use style="fill:#ffffff;stroke:#ffffff;stroke-width:0.8;" x="237.327822" xlink:href="#m468073f567" y="162.432"/>
      </g>
     </g>
    </g>
    <g id="xtick_5">
     <g id="line2d_5">
      <g>
       <use style="fill:#ffffff;stroke:#ffffff;stroke-width:0.8;" x="284.040706" xlink:href="#m468073f567" y="162.432"/>
      </g>
     </g>
    </g>
    <g id="xtick_6">
     <g id="line2d_6">
      <g>
       <use style="fill:#ffffff;stroke:#ffffff;stroke-width:0.8;" x="330.753591" xlink:href="#m468073f567" y="162.432"/>
      </g>
     </g>
    </g>
    <g id="xtick_7">
     <g id="line2d_7">
      <g>
       <use style="fill:#ffffff;stroke:#ffffff;stroke-width:0.8;" x="377.466475" xlink:href="#m468073f567" y="162.432"/>
      </g>
     </g>
    </g>
   </g>
   <g id="matplotlib.axis_2">
    <g id="ytick_1">
     <g id="line2d_8">
      <defs>
       <path d="M 0 0 
L -3.5 0 
" id="m55752c7a0a" style="stroke:#ffffff;stroke-width:0.8;"/>
      </defs>
      <g>
       <use style="fill:#ffffff;stroke:#ffffff;stroke-width:0.8;" x="57.6" xlink:href="#m55752c7a0a" y="148.833557"/>
      </g>
     </g>
     <g id="text_1">
      <!-- 4 -->
      <g style="fill:#ffffff;" transform="translate(44.2375 152.632775)scale(0.1 -0.1)">
       <defs>
        <path d="M 2419 4116 
L 825 1625 
L 2419 1625 
L 2419 4116 
z
M 2253 4666 
L 3047 4666 
L 3047 1625 
L 3713 1625 
L 3713 1100 
L 3047 1100 
L 3047 0 
L 2419 0 
L 2419 1100 
L 313 1100 
L 313 1709 
L 2253 4666 
z
" id="DejaVuSans-34" transform="scale(0.015625)"/>
       </defs>
       <use xlink:href="#DejaVuSans-34"/>
      </g>
     </g>
    </g>
    <g id="ytick_2">
     <g id="line2d_9">
      <g>
       <use style="fill:#ffffff;stroke:#ffffff;stroke-width:0.8;" x="57.6" xlink:href="#m55752c7a0a" y="122.85865"/>
      </g>
     </g>
     <g id="text_2">
      <!-- 6 -->
      <g style="fill:#ffffff;" transform="translate(44.2375 126.657869)scale(0.1 -0.1)">
       <defs>
        <path d="M 2113 2584 
Q 1688 2584 1439 2293 
Q 1191 2003 1191 1497 
Q 1191 994 1439 701 
Q 1688 409 2113 409 
Q 2538 409 2786 701 
Q 3034 994 3034 1497 
Q 3034 2003 2786 2293 
Q 2538 2584 2113 2584 
z
M 3366 4563 
L 3366 3988 
Q 3128 4100 2886 4159 
Q 2644 4219 2406 4219 
Q 1781 4219 1451 3797 
Q 1122 3375 1075 2522 
Q 1259 2794 1537 2939 
Q 1816 3084 2150 3084 
Q 2853 3084 3261 2657 
Q 3669 2231 3669 1497 
Q 3669 778 3244 343 
Q 2819 -91 2113 -91 
Q 1303 -91 875 529 
Q 447 1150 447 2328 
Q 447 3434 972 4092 
Q 1497 4750 2381 4750 
Q 2619 4750 2861 4703 
Q 3103 4656 3366 4563 
z
" id="DejaVuSans-36" transform="scale(0.015625)"/>
       </defs>
       <use xlink:href="#DejaVuSans-36"/>
      </g>
     </g>
    </g>
    <g id="ytick_3">
     <g id="line2d_10">
      <g>
       <use style="fill:#ffffff;stroke:#ffffff;stroke-width:0.8;" x="57.6" xlink:href="#m55752c7a0a" y="96.883744"/>
      </g>
     </g>
     <g id="text_3">
      <!-- 8 -->
      <g style="fill:#ffffff;" transform="translate(44.2375 100.682963)scale(0.1 -0.1)">
       <defs>
        <path d="M 2034 2216 
Q 1584 2216 1326 1975 
Q 1069 1734 1069 1313 
Q 1069 891 1326 650 
Q 1584 409 2034 409 
Q 2484 409 2743 651 
Q 3003 894 3003 1313 
Q 3003 1734 2745 1975 
Q 2488 2216 2034 2216 
z
M 1403 2484 
Q 997 2584 770 2862 
Q 544 3141 544 3541 
Q 544 4100 942 4425 
Q 1341 4750 2034 4750 
Q 2731 4750 3128 4425 
Q 3525 4100 3525 3541 
Q 3525 3141 3298 2862 
Q 3072 2584 2669 2484 
Q 3125 2378 3379 2068 
Q 3634 1759 3634 1313 
Q 3634 634 3220 271 
Q 2806 -91 2034 -91 
Q 1263 -91 848 271 
Q 434 634 434 1313 
Q 434 1759 690 2068 
Q 947 2378 1403 2484 
z
M 1172 3481 
Q 1172 3119 1398 2916 
Q 1625 2713 2034 2713 
Q 2441 2713 2670 2916 
Q 2900 3119 2900 3481 
Q 2900 3844 2670 4047 
Q 2441 4250 2034 4250 
Q 1625 4250 1398 4047 
Q 1172 3844 1172 3481 
z
" id="DejaVuSans-38" transform="scale(0.015625)"/>
       </defs>
       <use xlink:href="#DejaVuSans-38"/>
      </g>
     </g>
    </g>
    <g id="ytick_4">
     <g id="line2d_11">
      <g>
       <use style="fill:#ffffff;stroke:#ffffff;stroke-width:0.8;" x="57.6" xlink:href="#m55752c7a0a" y="70.908837"/>
      </g>
     </g>
     <g id="text_4">
      <!-- 10 -->
      <g style="fill:#ffffff;" transform="translate(37.875 74.708056)scale(0.1 -0.1)">
       <defs>
        <path d="M 794 531 
L 1825 531 
L 1825 4091 
L 703 3866 
L 703 4441 
L 1819 4666 
L 2450 4666 
L 2450 531 
L 3481 531 
L 3481 0 
L 794 0 
L 794 531 
z
" id="DejaVuSans-31" transform="scale(0.015625)"/>
        <path d="M 2034 4250 
Q 1547 4250 1301 3770 
Q 1056 3291 1056 2328 
Q 1056 1369 1301 889 
Q 1547 409 2034 409 
Q 2525 409 2770 889 
Q 3016 1369 3016 2328 
Q 3016 3291 2770 3770 
Q 2525 4250 2034 4250 
z
M 2034 4750 
Q 2819 4750 3233 4129 
Q 3647 3509 3647 2328 
Q 3647 1150 3233 529 
Q 2819 -91 2034 -91 
Q 1250 -91 836 529 
Q 422 1150 422 2328 
Q 422 3509 836 4129 
Q 1250 4750 2034 4750 
z
" id="DejaVuSans-30" transform="scale(0.015625)"/>
       </defs>
       <use xlink:href="#DejaVuSans-31"/>
       <use x="63.623047" xlink:href="#DejaVuSans-30"/>
      </g>
     </g>
    </g>
    <g id="ytick_5">
     <g id="line2d_12">
      <g>
       <use style="fill:#ffffff;stroke:#ffffff;stroke-width:0.8;" x="57.6" xlink:href="#m55752c7a0a" y="44.933931"/>
      </g>
     </g>
     <g id="text_5">
      <!-- 12 -->
      <g style="fill:#ffffff;" transform="translate(37.875 48.73315)scale(0.1 -0.1)">
       <defs>
        <path d="M 1228 531 
L 3431 531 
L 3431 0 
L 469 0 
L 469 531 
Q 828 903 1448 1529 
Q 2069 2156 2228 2338 
Q 2531 2678 2651 2914 
Q 2772 3150 2772 3378 
Q 2772 3750 2511 3984 
Q 2250 4219 1831 4219 
Q 1534 4219 1204 4116 
Q 875 4013 500 3803 
L 500 4441 
Q 881 4594 1212 4672 
Q 1544 4750 1819 4750 
Q 2544 4750 2975 4387 
Q 3406 4025 3406 3419 
Q 3406 3131 3298 2873 
Q 3191 2616 2906 2266 
Q 2828 2175 2409 1742 
Q 1991 1309 1228 531 
z
" id="DejaVuSans-32" transform="scale(0.015625)"/>
       </defs>
       <use xlink:href="#DejaVuSans-31"/>
       <use x="63.623047" xlink:href="#DejaVuSans-32"/>
      </g>
     </g>
    </g>
   </g>
   <g id="line2d_13">
    <path clip-path="url(#p233d4ed8f0)" d="M 73.832727 75.792717 
L 76.168371 82.275625 
L 78.504016 88.176916 
L 80.83966 91.523575 
L 83.175304 97.208547 
L 85.510948 99.141093 
L 87.846593 100.674353 
L 90.182237 105.795721 
L 92.517881 106.545084 
L 94.853525 105.826462 
L 97.189169 111.338675 
L 101.860458 115.799398 
L 104.196102 116.973503 
L 106.531746 116.00821 
L 108.86739 119.237813 
L 111.203035 121.253557 
L 113.538679 120.025788 
L 115.874323 124.699609 
L 118.209967 123.998702 
L 120.545612 125.54165 
L 122.881256 125.573612 
L 125.2169 127.293982 
L 127.552544 129.618035 
L 129.888188 127.765427 
L 132.223833 129.674037 
L 136.895121 131.58844 
L 139.230765 131.116696 
L 141.566409 132.621617 
L 143.902054 133.336694 
L 146.237698 134.177281 
L 148.573342 135.326125 
L 150.908986 135.813453 
L 153.24463 135.744957 
L 155.580275 136.20031 
L 157.915919 137.491977 
L 160.251563 137.549862 
L 162.587207 138.296316 
L 164.922852 138.282718 
L 167.258496 139.695909 
L 169.59414 140.948328 
L 171.929784 139.384496 
L 174.265428 140.783128 
L 176.601073 140.44561 
L 178.936717 140.967303 
L 181.272361 141.135374 
L 183.608005 141.898516 
L 185.943649 142.923123 
L 188.279294 142.729532 
L 192.950582 143.762073 
L 195.286226 142.899641 
L 197.621871 143.571911 
L 199.957515 144.788017 
L 202.293159 144.849863 
L 204.628803 145.325892 
L 206.964447 144.611647 
L 209.300092 144.799342 
L 211.635736 146.342641 
L 213.97138 145.840221 
L 216.307024 146.18974 
L 218.642668 145.885236 
L 220.978313 146.158726 
L 223.313957 146.74733 
L 225.649601 146.708861 
L 227.985245 147.013924 
L 230.320889 146.64921 
L 232.656534 147.434172 
L 234.992178 147.793106 
L 237.327822 147.222268 
L 239.663466 147.267127 
L 241.999111 148.275901 
L 244.334755 148.10083 
L 246.670399 148.243602 
L 249.006043 148.587704 
L 251.341687 149.448889 
L 253.677332 148.840959 
L 256.012976 149.355951 
L 258.34862 150.212473 
L 260.684264 149.978933 
L 263.019908 149.048785 
L 265.355553 150.309892 
L 267.691197 149.932737 
L 272.362485 150.177213 
L 274.698129 150.265047 
L 277.033774 150.637813 
L 281.705062 150.521744 
L 284.040706 150.70462 
L 288.711995 152.103499 
L 291.047639 151.693654 
L 293.383283 152.454511 
L 295.718927 152.298895 
L 298.054572 152.474433 
L 300.390216 153.448323 
L 302.72586 152.679544 
L 305.061504 153.200847 
L 307.397148 153.579614 
L 309.732793 153.836116 
L 312.068437 153.101766 
L 314.404081 153.428712 
L 316.739725 153.873195 
L 319.07537 153.556327 
L 321.411014 153.953665 
L 323.746658 154.192167 
L 326.082302 153.510053 
L 328.417946 154.315626 
L 330.753591 154.027018 
L 333.089235 154.428487 
L 335.424879 154.322392 
L 337.760523 153.956899 
L 340.096167 155.427676 
L 342.431812 155.170135 
L 344.767456 154.604259 
L 347.1031 154.861761 
L 349.438744 154.645663 
L 351.774388 155.420715 
L 356.445677 155.292879 
L 358.781321 154.830188 
L 361.116965 154.959492 
L 363.45261 155.987474 
L 365.788254 156.057243 
L 368.123898 155.721712 
L 370.459542 156.270419 
L 375.130831 156.621184 
L 377.466475 155.653866 
L 379.802119 156.933818 
L 382.137763 156.182143 
L 384.473407 156.287848 
L 386.809052 156.650809 
L 391.48034 156.099582 
L 393.815984 156.774891 
L 396.151629 156.897947 
L 398.487273 156.792684 
L 398.487273 156.792684 
" style="fill:none;stroke:#8dd3c7;stroke-linecap:square;stroke-width:1.5;"/>
   </g>
   <g id="line2d_14">
    <path clip-path="url(#p233d4ed8f0)" d="M 73.832727 46.970182 
L 76.168371 53.801673 
L 78.504016 66.894156 
L 80.83966 58.639214 
L 83.175304 61.45001 
L 85.510948 75.766716 
L 87.846593 71.174366 
L 90.182237 77.433123 
L 92.517881 82.047877 
L 94.853525 77.18144 
L 97.189169 89.9716 
L 99.524814 86.361322 
L 101.860458 87.12479 
L 104.196102 100.508906 
L 106.531746 93.710234 
L 108.86739 101.974566 
L 111.203035 101.344583 
L 113.538679 101.291556 
L 115.874323 109.824884 
L 118.209967 103.540697 
L 120.545612 109.942758 
L 122.881256 106.863277 
L 125.2169 105.846061 
L 127.552544 110.99191 
L 129.888188 109.66458 
L 132.223833 111.944709 
L 134.559477 112.82783 
L 136.895121 115.437788 
L 139.230765 113.705106 
L 141.566409 113.836305 
L 143.902054 111.215243 
L 146.237698 117.061765 
L 148.573342 117.599264 
L 150.908986 118.279456 
L 153.24463 119.113432 
L 155.580275 125.178105 
L 157.915919 119.696387 
L 160.251563 124.38439 
L 162.587207 123.276028 
L 164.922852 126.285364 
L 167.258496 128.951571 
L 169.59414 122.914275 
L 171.929784 121.843395 
L 174.265428 125.343527 
L 176.601073 120.487492 
L 178.936717 129.292141 
L 181.272361 130.550352 
L 183.608005 129.084329 
L 185.943649 126.735132 
L 188.279294 123.657976 
L 190.614938 130.369684 
L 192.950582 130.866181 
L 195.286226 130.248342 
L 197.621871 131.627493 
L 202.293159 127.023506 
L 204.628803 126.949919 
L 206.964447 129.100693 
L 209.300092 132.170641 
L 211.635736 131.03094 
L 213.97138 128.887309 
L 216.307024 130.287577 
L 218.642668 134.564242 
L 220.978313 128.375448 
L 223.313957 128.999534 
L 225.649601 133.431567 
L 227.985245 133.016488 
L 230.320889 131.27665 
L 232.656534 130.919833 
L 234.992178 132.598682 
L 237.327822 135.534067 
L 239.663466 131.67704 
L 241.999111 130.682422 
L 244.334755 125.865908 
L 246.670399 137.199825 
L 249.006043 133.451295 
L 251.341687 133.925947 
L 253.677332 134.037211 
L 256.012976 134.851498 
L 258.34862 136.50771 
L 260.684264 131.407407 
L 263.019908 127.937952 
L 265.355553 133.279679 
L 267.691197 136.466683 
L 270.026841 135.720177 
L 272.362485 133.776916 
L 274.698129 137.521108 
L 277.033774 131.342925 
L 279.369418 135.190185 
L 281.705062 135.880832 
L 284.040706 132.818118 
L 286.376351 131.392784 
L 288.711995 136.242506 
L 291.047639 136.720029 
L 293.383283 139.502604 
L 295.718927 135.814401 
L 298.054572 138.556832 
L 300.390216 137.80265 
L 302.72586 136.743601 
L 305.061504 136.256546 
L 307.397148 138.676966 
L 309.732793 137.807611 
L 312.068437 136.047383 
L 314.404081 139.082953 
L 316.739725 136.453046 
L 319.07537 138.676199 
L 321.411014 140.39418 
L 323.746658 138.043542 
L 326.082302 140.597096 
L 328.417946 136.609545 
L 330.753591 134.377859 
L 333.089235 143.395476 
L 335.424879 139.511163 
L 337.760523 136.084657 
L 340.096167 139.937385 
L 342.431812 137.596825 
L 344.767456 139.764691 
L 349.438744 139.33565 
L 354.110033 135.398997 
L 356.445677 137.595591 
L 358.781321 138.422593 
L 361.116965 142.116134 
L 363.45261 138.830269 
L 365.788254 142.943292 
L 368.123898 140.554588 
L 370.459542 142.790521 
L 372.795186 144.170476 
L 375.130831 137.254969 
L 377.466475 139.487694 
L 379.802119 139.541904 
L 382.137763 137.483639 
L 384.473407 140.668241 
L 389.144696 139.55806 
L 391.48034 143.053387 
L 393.815984 136.43976 
L 396.151629 138.527987 
L 398.487273 134.156293 
L 398.487273 134.156293 
" style="fill:none;stroke:#feffb3;stroke-linecap:square;stroke-width:1.5;"/>
   </g>
   <g id="patch_3">
    <path d="M 57.6 162.432 
L 57.6 41.472 
" style="fill:none;stroke:#ffffff;stroke-linecap:square;stroke-linejoin:miter;stroke-width:0.8;"/>
   </g>
   <g id="patch_4">
    <path d="M 414.72 162.432 
L 414.72 41.472 
" style="fill:none;stroke:#ffffff;stroke-linecap:square;stroke-linejoin:miter;stroke-width:0.8;"/>
   </g>
   <g id="patch_5">
    <path d="M 57.6 162.432 
L 414.72 162.432 
" style="fill:none;stroke:#ffffff;stroke-linecap:square;stroke-linejoin:miter;stroke-width:0.8;"/>
   </g>
   <g id="patch_6">
    <path d="M 57.6 41.472 
L 414.72 41.472 
" style="fill:none;stroke:#ffffff;stroke-linecap:square;stroke-linejoin:miter;stroke-width:0.8;"/>
   </g>
   <g id="text_6">
    <!-- Loss -->
    <g style="fill:#ffffff;" transform="translate(222.999375 35.472)scale(0.12 -0.12)">
     <defs>
      <path d="M 628 4666 
L 1259 4666 
L 1259 531 
L 3531 531 
L 3531 0 
L 628 0 
L 628 4666 
z
" id="DejaVuSans-4c" transform="scale(0.015625)"/>
      <path d="M 1959 3097 
Q 1497 3097 1228 2736 
Q 959 2375 959 1747 
Q 959 1119 1226 758 
Q 1494 397 1959 397 
Q 2419 397 2687 759 
Q 2956 1122 2956 1747 
Q 2956 2369 2687 2733 
Q 2419 3097 1959 3097 
z
M 1959 3584 
Q 2709 3584 3137 3096 
Q 3566 2609 3566 1747 
Q 3566 888 3137 398 
Q 2709 -91 1959 -91 
Q 1206 -91 779 398 
Q 353 888 353 1747 
Q 353 2609 779 3096 
Q 1206 3584 1959 3584 
z
" id="DejaVuSans-6f" transform="scale(0.015625)"/>
      <path d="M 2834 3397 
L 2834 2853 
Q 2591 2978 2328 3040 
Q 2066 3103 1784 3103 
Q 1356 3103 1142 2972 
Q 928 2841 928 2578 
Q 928 2378 1081 2264 
Q 1234 2150 1697 2047 
L 1894 2003 
Q 2506 1872 2764 1633 
Q 3022 1394 3022 966 
Q 3022 478 2636 193 
Q 2250 -91 1575 -91 
Q 1294 -91 989 -36 
Q 684 19 347 128 
L 347 722 
Q 666 556 975 473 
Q 1284 391 1588 391 
Q 1994 391 2212 530 
Q 2431 669 2431 922 
Q 2431 1156 2273 1281 
Q 2116 1406 1581 1522 
L 1381 1569 
Q 847 1681 609 1914 
Q 372 2147 372 2553 
Q 372 3047 722 3315 
Q 1072 3584 1716 3584 
Q 2034 3584 2315 3537 
Q 2597 3491 2834 3397 
z
" id="DejaVuSans-73" transform="scale(0.015625)"/>
     </defs>
     <use xlink:href="#DejaVuSans-4c"/>
     <use x="53.962891" xlink:href="#DejaVuSans-6f"/>
     <use x="115.144531" xlink:href="#DejaVuSans-73"/>
     <use x="167.244141" xlink:href="#DejaVuSans-73"/>
    </g>
   </g>
   <g id="legend_1">
    <g id="patch_7">
     <path d="M 326.485625 78.82825 
L 407.72 78.82825 
Q 409.72 78.82825 409.72 76.82825 
L 409.72 48.472 
Q 409.72 46.472 407.72 46.472 
L 326.485625 46.472 
Q 324.485625 46.472 324.485625 48.472 
L 324.485625 76.82825 
Q 324.485625 78.82825 326.485625 78.82825 
z
" style="opacity:0.8;stroke:#cccccc;stroke-linejoin:miter;"/>
    </g>
    <g id="line2d_15">
     <path d="M 328.485625 54.570437 
L 348.485625 54.570437 
" style="fill:none;stroke:#8dd3c7;stroke-linecap:square;stroke-width:1.5;"/>
    </g>
    <g id="line2d_16"/>
    <g id="text_7">
     <!-- train -->
     <g style="fill:#ffffff;" transform="translate(356.485625 58.070437)scale(0.1 -0.1)">
      <defs>
       <path d="M 1172 4494 
L 1172 3500 
L 2356 3500 
L 2356 3053 
L 1172 3053 
L 1172 1153 
Q 1172 725 1289 603 
Q 1406 481 1766 481 
L 2356 481 
L 2356 0 
L 1766 0 
Q 1100 0 847 248 
Q 594 497 594 1153 
L 594 3053 
L 172 3053 
L 172 3500 
L 594 3500 
L 594 4494 
L 1172 4494 
z
" id="DejaVuSans-74" transform="scale(0.015625)"/>
       <path d="M 2631 2963 
Q 2534 3019 2420 3045 
Q 2306 3072 2169 3072 
Q 1681 3072 1420 2755 
Q 1159 2438 1159 1844 
L 1159 0 
L 581 0 
L 581 3500 
L 1159 3500 
L 1159 2956 
Q 1341 3275 1631 3429 
Q 1922 3584 2338 3584 
Q 2397 3584 2469 3576 
Q 2541 3569 2628 3553 
L 2631 2963 
z
" id="DejaVuSans-72" transform="scale(0.015625)"/>
       <path d="M 2194 1759 
Q 1497 1759 1228 1600 
Q 959 1441 959 1056 
Q 959 750 1161 570 
Q 1363 391 1709 391 
Q 2188 391 2477 730 
Q 2766 1069 2766 1631 
L 2766 1759 
L 2194 1759 
z
M 3341 1997 
L 3341 0 
L 2766 0 
L 2766 531 
Q 2569 213 2275 61 
Q 1981 -91 1556 -91 
Q 1019 -91 701 211 
Q 384 513 384 1019 
Q 384 1609 779 1909 
Q 1175 2209 1959 2209 
L 2766 2209 
L 2766 2266 
Q 2766 2663 2505 2880 
Q 2244 3097 1772 3097 
Q 1472 3097 1187 3025 
Q 903 2953 641 2809 
L 641 3341 
Q 956 3463 1253 3523 
Q 1550 3584 1831 3584 
Q 2591 3584 2966 3190 
Q 3341 2797 3341 1997 
z
" id="DejaVuSans-61" transform="scale(0.015625)"/>
       <path d="M 603 3500 
L 1178 3500 
L 1178 0 
L 603 0 
L 603 3500 
z
M 603 4863 
L 1178 4863 
L 1178 4134 
L 603 4134 
L 603 4863 
z
" id="DejaVuSans-69" transform="scale(0.015625)"/>
       <path d="M 3513 2113 
L 3513 0 
L 2938 0 
L 2938 2094 
Q 2938 2591 2744 2837 
Q 2550 3084 2163 3084 
Q 1697 3084 1428 2787 
Q 1159 2491 1159 1978 
L 1159 0 
L 581 0 
L 581 3500 
L 1159 3500 
L 1159 2956 
Q 1366 3272 1645 3428 
Q 1925 3584 2291 3584 
Q 2894 3584 3203 3211 
Q 3513 2838 3513 2113 
z
" id="DejaVuSans-6e" transform="scale(0.015625)"/>
      </defs>
      <use xlink:href="#DejaVuSans-74"/>
      <use x="39.208984" xlink:href="#DejaVuSans-72"/>
      <use x="80.322266" xlink:href="#DejaVuSans-61"/>
      <use x="141.601562" xlink:href="#DejaVuSans-69"/>
      <use x="169.384766" xlink:href="#DejaVuSans-6e"/>
     </g>
    </g>
    <g id="line2d_17">
     <path d="M 328.485625 69.248562 
L 348.485625 69.248562 
" style="fill:none;stroke:#feffb3;stroke-linecap:square;stroke-width:1.5;"/>
    </g>
    <g id="line2d_18"/>
    <g id="text_8">
     <!-- validation -->
     <g style="fill:#ffffff;" transform="translate(356.485625 72.748562)scale(0.1 -0.1)">
      <defs>
       <path d="M 191 3500 
L 800 3500 
L 1894 563 
L 2988 3500 
L 3597 3500 
L 2284 0 
L 1503 0 
L 191 3500 
z
" id="DejaVuSans-76" transform="scale(0.015625)"/>
       <path d="M 603 4863 
L 1178 4863 
L 1178 0 
L 603 0 
L 603 4863 
z
" id="DejaVuSans-6c" transform="scale(0.015625)"/>
       <path d="M 2906 2969 
L 2906 4863 
L 3481 4863 
L 3481 0 
L 2906 0 
L 2906 525 
Q 2725 213 2448 61 
Q 2172 -91 1784 -91 
Q 1150 -91 751 415 
Q 353 922 353 1747 
Q 353 2572 751 3078 
Q 1150 3584 1784 3584 
Q 2172 3584 2448 3432 
Q 2725 3281 2906 2969 
z
M 947 1747 
Q 947 1113 1208 752 
Q 1469 391 1925 391 
Q 2381 391 2643 752 
Q 2906 1113 2906 1747 
Q 2906 2381 2643 2742 
Q 2381 3103 1925 3103 
Q 1469 3103 1208 2742 
Q 947 2381 947 1747 
z
" id="DejaVuSans-64" transform="scale(0.015625)"/>
      </defs>
      <use xlink:href="#DejaVuSans-76"/>
      <use x="59.179688" xlink:href="#DejaVuSans-61"/>
      <use x="120.458984" xlink:href="#DejaVuSans-6c"/>
      <use x="148.242188" xlink:href="#DejaVuSans-69"/>
      <use x="176.025391" xlink:href="#DejaVuSans-64"/>
      <use x="239.501953" xlink:href="#DejaVuSans-61"/>
      <use x="300.78125" xlink:href="#DejaVuSans-74"/>
      <use x="339.990234" xlink:href="#DejaVuSans-69"/>
      <use x="367.773438" xlink:href="#DejaVuSans-6f"/>
      <use x="428.955078" xlink:href="#DejaVuSans-6e"/>
     </g>
    </g>
   </g>
  </g>
  <g id="axes_2">
   <g id="patch_8">
    <path d="M 57.6 307.584 
L 414.72 307.584 
L 414.72 186.624 
L 57.6 186.624 
z
" style="fill:none;"/>
   </g>
   <g id="matplotlib.axis_3">
    <g id="xtick_8">
     <g id="line2d_19">
      <g>
       <use style="fill:#ffffff;stroke:#ffffff;stroke-width:0.8;" x="97.189169" xlink:href="#m468073f567" y="307.584"/>
      </g>
     </g>
     <g id="text_9">
      <!-- 200 -->
      <g style="fill:#ffffff;" transform="translate(87.645419 322.182437)scale(0.1 -0.1)">
       <use xlink:href="#DejaVuSans-32"/>
       <use x="63.623047" xlink:href="#DejaVuSans-30"/>
       <use x="127.246094" xlink:href="#DejaVuSans-30"/>
      </g>
     </g>
    </g>
    <g id="xtick_9">
     <g id="line2d_20">
      <g>
       <use style="fill:#ffffff;stroke:#ffffff;stroke-width:0.8;" x="143.902054" xlink:href="#m468073f567" y="307.584"/>
      </g>
     </g>
     <g id="text_10">
      <!-- 400 -->
      <g style="fill:#ffffff;" transform="translate(134.358304 322.182437)scale(0.1 -0.1)">
       <use xlink:href="#DejaVuSans-34"/>
       <use x="63.623047" xlink:href="#DejaVuSans-30"/>
       <use x="127.246094" xlink:href="#DejaVuSans-30"/>
      </g>
     </g>
    </g>
    <g id="xtick_10">
     <g id="line2d_21">
      <g>
       <use style="fill:#ffffff;stroke:#ffffff;stroke-width:0.8;" x="190.614938" xlink:href="#m468073f567" y="307.584"/>
      </g>
     </g>
     <g id="text_11">
      <!-- 600 -->
      <g style="fill:#ffffff;" transform="translate(181.071188 322.182437)scale(0.1 -0.1)">
       <use xlink:href="#DejaVuSans-36"/>
       <use x="63.623047" xlink:href="#DejaVuSans-30"/>
       <use x="127.246094" xlink:href="#DejaVuSans-30"/>
      </g>
     </g>
    </g>
    <g id="xtick_11">
     <g id="line2d_22">
      <g>
       <use style="fill:#ffffff;stroke:#ffffff;stroke-width:0.8;" x="237.327822" xlink:href="#m468073f567" y="307.584"/>
      </g>
     </g>
     <g id="text_12">
      <!-- 800 -->
      <g style="fill:#ffffff;" transform="translate(227.784072 322.182437)scale(0.1 -0.1)">
       <use xlink:href="#DejaVuSans-38"/>
       <use x="63.623047" xlink:href="#DejaVuSans-30"/>
       <use x="127.246094" xlink:href="#DejaVuSans-30"/>
      </g>
     </g>
    </g>
    <g id="xtick_12">
     <g id="line2d_23">
      <g>
       <use style="fill:#ffffff;stroke:#ffffff;stroke-width:0.8;" x="284.040706" xlink:href="#m468073f567" y="307.584"/>
      </g>
     </g>
     <g id="text_13">
      <!-- 1000 -->
      <g style="fill:#ffffff;" transform="translate(271.315706 322.182437)scale(0.1 -0.1)">
       <use xlink:href="#DejaVuSans-31"/>
       <use x="63.623047" xlink:href="#DejaVuSans-30"/>
       <use x="127.246094" xlink:href="#DejaVuSans-30"/>
       <use x="190.869141" xlink:href="#DejaVuSans-30"/>
      </g>
     </g>
    </g>
    <g id="xtick_13">
     <g id="line2d_24">
      <g>
       <use style="fill:#ffffff;stroke:#ffffff;stroke-width:0.8;" x="330.753591" xlink:href="#m468073f567" y="307.584"/>
      </g>
     </g>
     <g id="text_14">
      <!-- 1200 -->
      <g style="fill:#ffffff;" transform="translate(318.028591 322.182437)scale(0.1 -0.1)">
       <use xlink:href="#DejaVuSans-31"/>
       <use x="63.623047" xlink:href="#DejaVuSans-32"/>
       <use x="127.246094" xlink:href="#DejaVuSans-30"/>
       <use x="190.869141" xlink:href="#DejaVuSans-30"/>
      </g>
     </g>
    </g>
    <g id="xtick_14">
     <g id="line2d_25">
      <g>
       <use style="fill:#ffffff;stroke:#ffffff;stroke-width:0.8;" x="377.466475" xlink:href="#m468073f567" y="307.584"/>
      </g>
     </g>
     <g id="text_15">
      <!-- 1400 -->
      <g style="fill:#ffffff;" transform="translate(364.741475 322.182437)scale(0.1 -0.1)">
       <use xlink:href="#DejaVuSans-31"/>
       <use x="63.623047" xlink:href="#DejaVuSans-34"/>
       <use x="127.246094" xlink:href="#DejaVuSans-30"/>
       <use x="190.869141" xlink:href="#DejaVuSans-30"/>
      </g>
     </g>
    </g>
   </g>
   <g id="matplotlib.axis_4">
    <g id="ytick_6">
     <g id="line2d_26">
      <g>
       <use style="fill:#ffffff;stroke:#ffffff;stroke-width:0.8;" x="57.6" xlink:href="#m55752c7a0a" y="293.985531"/>
      </g>
     </g>
     <g id="text_16">
      <!-- 0.04 -->
      <g style="fill:#ffffff;" transform="translate(28.334375 297.78475)scale(0.1 -0.1)">
       <defs>
        <path d="M 684 794 
L 1344 794 
L 1344 0 
L 684 0 
L 684 794 
z
" id="DejaVuSans-2e" transform="scale(0.015625)"/>
       </defs>
       <use xlink:href="#DejaVuSans-30"/>
       <use x="63.623047" xlink:href="#DejaVuSans-2e"/>
       <use x="95.410156" xlink:href="#DejaVuSans-30"/>
       <use x="159.033203" xlink:href="#DejaVuSans-34"/>
      </g>
     </g>
    </g>
    <g id="ytick_7">
     <g id="line2d_27">
      <g>
       <use style="fill:#ffffff;stroke:#ffffff;stroke-width:0.8;" x="57.6" xlink:href="#m55752c7a0a" y="268.010585"/>
      </g>
     </g>
     <g id="text_17">
      <!-- 0.06 -->
      <g style="fill:#ffffff;" transform="translate(28.334375 271.809804)scale(0.1 -0.1)">
       <use xlink:href="#DejaVuSans-30"/>
       <use x="63.623047" xlink:href="#DejaVuSans-2e"/>
       <use x="95.410156" xlink:href="#DejaVuSans-30"/>
       <use x="159.033203" xlink:href="#DejaVuSans-36"/>
      </g>
     </g>
    </g>
    <g id="ytick_8">
     <g id="line2d_28">
      <g>
       <use style="fill:#ffffff;stroke:#ffffff;stroke-width:0.8;" x="57.6" xlink:href="#m55752c7a0a" y="242.035639"/>
      </g>
     </g>
     <g id="text_18">
      <!-- 0.08 -->
      <g style="fill:#ffffff;" transform="translate(28.334375 245.834857)scale(0.1 -0.1)">
       <use xlink:href="#DejaVuSans-30"/>
       <use x="63.623047" xlink:href="#DejaVuSans-2e"/>
       <use x="95.410156" xlink:href="#DejaVuSans-30"/>
       <use x="159.033203" xlink:href="#DejaVuSans-38"/>
      </g>
     </g>
    </g>
    <g id="ytick_9">
     <g id="line2d_29">
      <g>
       <use style="fill:#ffffff;stroke:#ffffff;stroke-width:0.8;" x="57.6" xlink:href="#m55752c7a0a" y="216.060692"/>
      </g>
     </g>
     <g id="text_19">
      <!-- 0.10 -->
      <g style="fill:#ffffff;" transform="translate(28.334375 219.859911)scale(0.1 -0.1)">
       <use xlink:href="#DejaVuSans-30"/>
       <use x="63.623047" xlink:href="#DejaVuSans-2e"/>
       <use x="95.410156" xlink:href="#DejaVuSans-31"/>
       <use x="159.033203" xlink:href="#DejaVuSans-30"/>
      </g>
     </g>
    </g>
    <g id="ytick_10">
     <g id="line2d_30">
      <g>
       <use style="fill:#ffffff;stroke:#ffffff;stroke-width:0.8;" x="57.6" xlink:href="#m55752c7a0a" y="190.085746"/>
      </g>
     </g>
     <g id="text_20">
      <!-- 0.12 -->
      <g style="fill:#ffffff;" transform="translate(28.334375 193.884965)scale(0.1 -0.1)">
       <use xlink:href="#DejaVuSans-30"/>
       <use x="63.623047" xlink:href="#DejaVuSans-2e"/>
       <use x="95.410156" xlink:href="#DejaVuSans-31"/>
       <use x="159.033203" xlink:href="#DejaVuSans-32"/>
      </g>
     </g>
    </g>
   </g>
   <g id="line2d_31">
    <path clip-path="url(#pbe6fe92cf4)" d="M 73.832727 220.943982 
L 76.168371 227.427329 
L 78.504016 233.328837 
L 80.83966 236.675708 
L 83.175304 242.360325 
L 85.510948 244.292861 
L 87.846593 245.826682 
L 90.182237 250.947643 
L 92.517881 251.69702 
L 94.853525 250.978813 
L 97.189169 256.490696 
L 101.860458 260.951893 
L 104.196102 262.125961 
L 106.531746 261.159693 
L 108.86739 264.389677 
L 111.203035 266.405333 
L 113.538679 265.178017 
L 115.874323 269.85091 
L 118.209967 269.150885 
L 120.545612 270.693797 
L 122.881256 270.724967 
L 125.2169 272.445807 
L 127.552544 274.770565 
L 129.888188 272.917252 
L 132.223833 274.826411 
L 136.895121 276.740764 
L 139.230765 276.26802 
L 141.566409 277.773268 
L 143.902054 278.488878 
L 146.237698 279.329168 
L 148.573342 280.478559 
L 150.908986 280.965589 
L 153.24463 280.896756 
L 155.580275 281.352616 
L 157.915919 282.643571 
L 160.251563 282.702015 
L 162.587207 283.448794 
L 164.922852 283.434508 
L 167.258496 284.847545 
L 169.59414 286.100836 
L 171.929784 284.535846 
L 174.265428 285.934597 
L 176.601073 285.598221 
L 178.936717 286.119019 
L 181.272361 286.287856 
L 183.608005 287.050221 
L 185.943649 288.074932 
L 188.279294 287.881419 
L 192.950582 288.913923 
L 195.286226 288.051555 
L 197.621871 288.724306 
L 199.957515 289.939933 
L 202.293159 290.002273 
L 204.628803 290.477615 
L 206.964447 289.763304 
L 209.300092 289.951622 
L 211.635736 291.494534 
L 213.97138 290.991919 
L 216.307024 291.341282 
L 218.642668 291.037375 
L 220.978313 291.310112 
L 223.313957 291.899743 
L 225.649601 291.860781 
L 227.985245 292.165986 
L 230.320889 291.801038 
L 232.656534 292.58678 
L 234.992178 292.945235 
L 237.327822 292.373786 
L 239.663466 292.419242 
L 241.999111 293.428369 
L 244.334755 293.253038 
L 246.670399 293.3959 
L 249.006043 293.740068 
L 251.341687 294.601137 
L 253.677332 293.993324 
L 256.012976 294.507628 
L 258.34862 295.364801 
L 260.684264 295.131026 
L 263.019908 294.201123 
L 265.355553 295.462207 
L 267.691197 295.084271 
L 272.362485 295.329735 
L 274.698129 295.416751 
L 277.033774 295.789491 
L 281.705062 295.673903 
L 284.040706 295.857026 
L 288.711995 297.255777 
L 291.047639 296.845373 
L 293.383283 297.606439 
L 295.718927 297.450589 
L 298.054572 297.62592 
L 300.390216 298.59998 
L 302.72586 297.831122 
L 305.061504 298.353218 
L 307.397148 298.731154 
L 309.732793 298.988306 
L 312.068437 298.253215 
L 314.404081 298.580499 
L 316.739725 299.024671 
L 319.07537 298.707776 
L 321.411014 299.105193 
L 323.746658 299.344163 
L 326.082302 298.66232 
L 328.417946 299.467544 
L 330.753591 299.179222 
L 333.089235 299.580535 
L 335.424879 299.474037 
L 337.760523 299.109089 
L 340.096167 300.579271 
L 342.431812 300.322119 
L 344.767456 299.755865 
L 347.1031 300.014316 
L 349.438744 299.797425 
L 351.774388 300.572778 
L 356.445677 300.4455 
L 358.781321 299.981848 
L 361.116965 300.111722 
L 363.45261 301.139031 
L 365.788254 301.209164 
L 368.123898 300.874087 
L 370.459542 301.422158 
L 375.130831 301.77282 
L 377.466475 300.805253 
L 379.802119 302.085818 
L 382.137763 301.333843 
L 384.473407 301.440341 
L 386.809052 301.802691 
L 391.48034 301.252022 
L 393.815984 301.927371 
L 396.151629 302.049453 
L 398.487273 301.944255 
L 398.487273 301.944255 
" style="fill:none;stroke:#8dd3c7;stroke-linecap:square;stroke-width:1.5;"/>
   </g>
   <g id="line2d_32">
    <path clip-path="url(#pbe6fe92cf4)" d="M 73.832727 192.122182 
L 76.168371 198.953593 
L 78.504016 212.046264 
L 80.83966 203.791426 
L 83.175304 206.601916 
L 85.510948 220.918007 
L 87.846593 216.325637 
L 90.182237 222.585599 
L 92.517881 227.200048 
L 94.853525 222.333642 
L 97.189169 235.123705 
L 99.524814 231.513188 
L 101.860458 232.276851 
L 104.196102 245.660442 
L 106.531746 238.8615 
L 108.86739 247.126728 
L 111.203035 246.496836 
L 113.538679 246.443587 
L 115.874323 254.976357 
L 118.209967 248.693017 
L 120.545612 255.094543 
L 122.881256 252.015213 
L 125.2169 250.998294 
L 127.552544 256.143931 
L 129.888188 254.816611 
L 132.223833 257.097211 
L 134.559477 257.980359 
L 136.895121 260.589543 
L 139.230765 258.857014 
L 141.566409 258.988187 
L 143.902054 256.367315 
L 146.237698 262.214276 
L 148.573342 262.750658 
L 150.908986 263.431202 
L 153.24463 264.264998 
L 155.580275 270.330148 
L 157.915919 264.848135 
L 160.251563 269.536613 
L 162.587207 268.427483 
L 164.922852 271.43668 
L 167.258496 274.103009 
L 169.59414 268.066431 
L 171.929784 266.994964 
L 174.265428 270.495089 
L 176.601073 265.639072 
L 178.936717 274.444579 
L 181.272361 275.701766 
L 183.608005 274.23678 
L 185.943649 271.887346 
L 188.279294 268.809314 
L 190.614938 275.521241 
L 192.950582 276.018661 
L 195.286226 275.400457 
L 197.621871 276.779727 
L 202.293159 272.175668 
L 204.628803 272.101639 
L 206.964447 274.252364 
L 209.300092 277.322603 
L 211.635736 276.182303 
L 213.97138 274.03937 
L 216.307024 275.43942 
L 218.642668 279.716194 
L 220.978313 273.527663 
L 223.313957 274.151062 
L 225.649601 278.583687 
L 227.985245 278.168088 
L 230.320889 276.429065 
L 232.656534 276.071909 
L 234.992178 277.75119 
L 237.327822 280.686359 
L 239.663466 276.829079 
L 241.999111 275.834239 
L 244.334755 271.018484 
L 246.670399 282.351353 
L 249.006043 278.603168 
L 251.341687 279.07851 
L 253.677332 279.188903 
L 256.012976 280.003218 
L 258.34862 281.65912 
L 260.684264 276.55894 
L 263.019908 273.089986 
L 265.355553 278.431733 
L 267.691197 281.618859 
L 270.026841 280.87208 
L 272.362485 278.929154 
L 274.698129 282.673442 
L 277.033774 276.495301 
L 279.369418 280.342191 
L 281.705062 281.033124 
L 284.040706 277.970678 
L 286.376351 276.544653 
L 288.711995 281.394176 
L 291.047639 281.872115 
L 293.383283 284.654032 
L 295.718927 280.966888 
L 298.054572 283.708544 
L 300.390216 282.953971 
L 302.72586 281.895492 
L 305.061504 281.408462 
L 307.397148 283.829327 
L 309.732793 282.959166 
L 312.068437 281.199364 
L 314.404081 284.234536 
L 316.739725 281.604573 
L 319.07537 283.828028 
L 321.411014 285.546271 
L 323.746658 283.195538 
L 326.082302 285.748876 
L 328.417946 281.761721 
L 330.753591 279.529175 
L 333.089235 288.547676 
L 335.424879 284.663123 
L 337.760523 281.237028 
L 340.096167 285.089112 
L 342.431812 282.748769 
L 344.767456 284.916379 
L 349.438744 284.487792 
L 354.110033 280.551289 
L 356.445677 282.747471 
L 358.781321 283.574773 
L 361.116965 287.26841 
L 363.45261 283.982579 
L 365.788254 288.095712 
L 368.123898 285.706017 
L 370.459542 287.94246 
L 372.795186 289.323028 
L 375.130831 282.407199 
L 377.466475 284.639746 
L 379.802119 284.694293 
L 382.137763 282.635778 
L 384.473407 285.820307 
L 389.144696 284.709878 
L 391.48034 288.204807 
L 393.815984 281.591586 
L 396.151629 283.679971 
L 398.487273 279.308388 
L 398.487273 279.308388 
" style="fill:none;stroke:#feffb3;stroke-linecap:square;stroke-width:1.5;"/>
   </g>
   <g id="patch_9">
    <path d="M 57.6 307.584 
L 57.6 186.624 
" style="fill:none;stroke:#ffffff;stroke-linecap:square;stroke-linejoin:miter;stroke-width:0.8;"/>
   </g>
   <g id="patch_10">
    <path d="M 414.72 307.584 
L 414.72 186.624 
" style="fill:none;stroke:#ffffff;stroke-linecap:square;stroke-linejoin:miter;stroke-width:0.8;"/>
   </g>
   <g id="patch_11">
    <path d="M 57.6 307.584 
L 414.72 307.584 
" style="fill:none;stroke:#ffffff;stroke-linecap:square;stroke-linejoin:miter;stroke-width:0.8;"/>
   </g>
   <g id="patch_12">
    <path d="M 57.6 186.624 
L 414.72 186.624 
" style="fill:none;stroke:#ffffff;stroke-linecap:square;stroke-linejoin:miter;stroke-width:0.8;"/>
   </g>
   <g id="text_21">
    <!-- RMSE -->
    <g style="fill:#ffffff;" transform="translate(219.21375 180.624)scale(0.12 -0.12)">
     <defs>
      <path d="M 2841 2188 
Q 3044 2119 3236 1894 
Q 3428 1669 3622 1275 
L 4263 0 
L 3584 0 
L 2988 1197 
Q 2756 1666 2539 1819 
Q 2322 1972 1947 1972 
L 1259 1972 
L 1259 0 
L 628 0 
L 628 4666 
L 2053 4666 
Q 2853 4666 3247 4331 
Q 3641 3997 3641 3322 
Q 3641 2881 3436 2590 
Q 3231 2300 2841 2188 
z
M 1259 4147 
L 1259 2491 
L 2053 2491 
Q 2509 2491 2742 2702 
Q 2975 2913 2975 3322 
Q 2975 3731 2742 3939 
Q 2509 4147 2053 4147 
L 1259 4147 
z
" id="DejaVuSans-52" transform="scale(0.015625)"/>
      <path d="M 628 4666 
L 1569 4666 
L 2759 1491 
L 3956 4666 
L 4897 4666 
L 4897 0 
L 4281 0 
L 4281 4097 
L 3078 897 
L 2444 897 
L 1241 4097 
L 1241 0 
L 628 0 
L 628 4666 
z
" id="DejaVuSans-4d" transform="scale(0.015625)"/>
      <path d="M 3425 4513 
L 3425 3897 
Q 3066 4069 2747 4153 
Q 2428 4238 2131 4238 
Q 1616 4238 1336 4038 
Q 1056 3838 1056 3469 
Q 1056 3159 1242 3001 
Q 1428 2844 1947 2747 
L 2328 2669 
Q 3034 2534 3370 2195 
Q 3706 1856 3706 1288 
Q 3706 609 3251 259 
Q 2797 -91 1919 -91 
Q 1588 -91 1214 -16 
Q 841 59 441 206 
L 441 856 
Q 825 641 1194 531 
Q 1563 422 1919 422 
Q 2459 422 2753 634 
Q 3047 847 3047 1241 
Q 3047 1584 2836 1778 
Q 2625 1972 2144 2069 
L 1759 2144 
Q 1053 2284 737 2584 
Q 422 2884 422 3419 
Q 422 4038 858 4394 
Q 1294 4750 2059 4750 
Q 2388 4750 2728 4690 
Q 3069 4631 3425 4513 
z
" id="DejaVuSans-53" transform="scale(0.015625)"/>
      <path d="M 628 4666 
L 3578 4666 
L 3578 4134 
L 1259 4134 
L 1259 2753 
L 3481 2753 
L 3481 2222 
L 1259 2222 
L 1259 531 
L 3634 531 
L 3634 0 
L 628 0 
L 628 4666 
z
" id="DejaVuSans-45" transform="scale(0.015625)"/>
     </defs>
     <use xlink:href="#DejaVuSans-52"/>
     <use x="69.482422" xlink:href="#DejaVuSans-4d"/>
     <use x="155.761719" xlink:href="#DejaVuSans-53"/>
     <use x="219.238281" xlink:href="#DejaVuSans-45"/>
    </g>
   </g>
  </g>
 </g>
 <defs>
  <clipPath id="p233d4ed8f0">
   <rect height="120.96" width="357.12" x="57.6" y="41.472"/>
  </clipPath>
  <clipPath id="pbe6fe92cf4">
   <rect height="120.96" width="357.12" x="57.6" y="186.624"/>
  </clipPath>
 </defs>
</svg>
